<?xml version="1.0" encoding="utf-8"?>
<!-- Generator: Adobe Illustrator 24.3.0, SVG Export Plug-In . SVG Version: 6.00 Build 0)  -->
<svg version="1.1" xmlns="http://www.w3.org/2000/svg" xmlns:xlink="http://www.w3.org/1999/xlink" x="0px" y="0px"
	 viewBox="0 0 16.2 16.17" enable-background="new 0 0 16.2 16.17" xml:space="preserve">
<g id="배경">
</g>
<g id="로그인_창">
</g>
<g id="오픈">
</g>
<g id="엑스">
</g>
<g id="선택">
</g>
<g id="클라우드">
</g>
<g id="Layer_8" display="none">
</g>
<g id="로컬드라이브">
	<path fill="#FFFFFF" d="M9.12,0.07C6.97-0.21,4.85,0.37,3.14,1.7c-3.53,2.73-4.18,7.83-1.45,11.36c0.42,0.54,0.9,1.03,1.45,1.45
		c1.4,1.07,3.14,1.66,4.9,1.66c0.02,0,0.04,0,0.06,0h0.69c1.55-0.13,3.03-0.7,4.27-1.66c1.71-1.32,2.8-3.24,3.08-5.38
		s-0.31-4.27-1.63-5.98C13.18,1.43,11.26,0.34,9.12,0.07z M11.99,14.55c-0.14,0.09-0.29,0.19-0.44,0.26l-0.28,0.12
		c-1.01,0.45-2.09,0.68-3.17,0.68s-2.16-0.23-3.17-0.68l-0.26-0.11c-0.14-0.07-0.27-0.15-0.4-0.23L3.6,14.16l0.02-0.12
		c0.19-1.2,0.83-2.25,1.8-2.97c0.98-0.72,2.18-1.01,3.37-0.82c1.96,0.3,3.49,1.83,3.79,3.79l0.02,0.13L11.99,14.55z M5.96,7.5
		c0-0.57,0.22-1.11,0.62-1.51c0.4-0.41,0.94-0.63,1.51-0.63c0,0,0.01,0,0.01,0c0.57,0,1.1,0.22,1.5,0.62
		c0.41,0.4,0.63,0.94,0.63,1.51c0.01,1.18-0.95,2.14-2.13,2.15C6.93,9.63,5.97,8.68,5.96,7.5z M13.33,13.54l-0.24,0.23l-0.08-0.32
		C12.6,11.8,11.4,10.49,9.8,9.93L9.46,9.82L9.74,9.6c1.17-0.9,1.39-2.59,0.48-3.76C9.32,4.67,7.63,4.45,6.46,5.36
		C5.29,6.26,5.07,7.95,5.98,9.12C6.12,9.3,6.28,9.46,6.46,9.6l0.28,0.22L6.41,9.93c-1.6,0.56-2.8,1.87-3.22,3.51l-0.08,0.32
		l-0.24-0.23c-1.45-1.4-2.28-3.28-2.31-5.3C0.52,6.23,1.26,4.31,2.66,2.86c1.41-1.47,3.4-2.32,5.44-2.32c4.16,0,7.55,3.39,7.55,7.56
		C15.65,10.14,14.8,12.12,13.33,13.54z"/>
</g>
</svg>
