<?xml version="1.0" encoding="utf-8"?>
<!-- Generator: Adobe Illustrator 24.3.0, SVG Export Plug-In . SVG Version: 6.00 Build 0)  -->
<svg version="1.1" xmlns="http://www.w3.org/2000/svg" xmlns:xlink="http://www.w3.org/1999/xlink" x="0px" y="0px"
	 viewBox="0 0 13.27 13.23" enable-background="new 0 0 13.27 13.23" xml:space="preserve">
<g id="배경">
</g>
<g id="로그인_창">
</g>
<g id="오픈">
</g>
<g id="엑스">
</g>
<g id="선택">
</g>
<g id="클라우드">
</g>
<g id="Layer_8" display="none">
</g>
<g id="로컬드라이브">
	<path fill="#737373" d="M7.48,0.05C5.72-0.17,3.98,0.3,2.59,1.39C-0.3,3.63-0.84,7.8,1.4,10.69c0.34,0.44,0.74,0.84,1.18,1.18
		c1.14,0.88,2.57,1.36,4.01,1.36c0.02,0,0.03,0,0.05,0h0.56c1.27-0.1,2.48-0.57,3.49-1.36c1.4-1.08,2.29-2.65,2.52-4.4
		s-0.25-3.49-1.33-4.89C10.8,1.17,9.24,0.28,7.48,0.05z M9.83,11.9c-0.12,0.08-0.24,0.15-0.36,0.21l-0.23,0.1
		c-0.82,0.37-1.71,0.56-2.6,0.56s-1.77-0.19-2.6-0.56l-0.21-0.09c-0.12-0.06-0.22-0.12-0.33-0.19l-0.55-0.35l0.02-0.1
		c0.15-0.98,0.68-1.84,1.48-2.43c0.8-0.59,1.78-0.83,2.76-0.67c1.61,0.25,2.85,1.49,3.1,3.1l0.02,0.1L9.83,11.9z M4.9,6.14
		c0-0.47,0.18-0.91,0.51-1.24c0.33-0.33,0.77-0.52,1.23-0.52c0,0,0.01,0,0.01,0c0.46,0,0.9,0.18,1.23,0.51
		c0.33,0.33,0.52,0.77,0.52,1.23c0,0.96-0.78,1.75-1.74,1.76C5.69,7.88,4.9,7.1,4.9,6.14z M10.93,11.08l-0.19,0.19L10.67,11
		c-0.34-1.35-1.32-2.42-2.63-2.88L7.76,8.03l0.23-0.18c0.96-0.74,1.13-2.12,0.39-3.08C7.64,3.82,6.26,3.64,5.3,4.38
		C4.35,5.12,4.17,6.5,4.91,7.46C5.02,7.61,5.16,7.74,5.3,7.86l0.23,0.18L5.26,8.13C3.95,8.58,2.96,9.66,2.63,11l-0.07,0.26
		l-0.19-0.19C1.18,9.93,0.5,8.39,0.47,6.74C0.44,5.09,1.05,3.53,2.2,2.34c1.16-1.2,2.78-1.89,4.45-1.9c3.41,0,6.18,2.78,6.18,6.18
		C12.82,8.3,12.13,9.92,10.93,11.08z"/>
</g>
</svg>
