<?xml version="1.0" encoding="utf-8"?>
<!-- Generator: Adobe Illustrator 24.3.0, SVG Export Plug-In . SVG Version: 6.00 Build 0)  -->
<svg version="1.1" xmlns="http://www.w3.org/2000/svg" xmlns:xlink="http://www.w3.org/1999/xlink" x="0px" y="0px"
	 viewBox="0 0 12.38 12.38" enable-background="new 0 0 12.38 12.38" xml:space="preserve">
<g id="배경">
</g>
<g id="로그인_창">
</g>
<g id="오픈">
</g>
<g id="엑스">
</g>
<g id="선택">
</g>
<g id="클라우드">
</g>
<g id="Layer_8" display="none">
</g>
<g id="로컬드라이브">
	<g>
		<circle fill="#FFFFFF" cx="6.19" cy="6.19" r="6.19"/>
		<path fill="#272727" d="M8.95,8.19L6.82,6.06l2.14-2.14c0.15-0.18,0.15-0.45,0-0.63c-0.08-0.1-0.2-0.16-0.33-0.17
			C8.51,3.11,8.38,3.15,8.27,3.25L6.19,5.32L4.1,3.23c-0.1-0.08-0.22-0.12-0.35-0.12C3.62,3.13,3.5,3.19,3.42,3.29
			C3.27,3.47,3.27,3.74,3.43,3.93l2.13,2.13L3.44,8.18c-0.1,0.08-0.16,0.2-0.17,0.33C3.27,8.64,3.31,8.77,3.39,8.86
			c0.08,0.1,0.2,0.16,0.33,0.17C3.85,9.04,3.98,9,4.07,8.92L6.19,6.8l2.07,2.07l0.05,0.05c0.09,0.08,0.2,0.12,0.32,0.12
			c0.01,0,0.02,0,0.04,0c0.13-0.01,0.25-0.07,0.33-0.17c0.08-0.1,0.12-0.22,0.12-0.35C9.1,8.38,9.04,8.27,8.95,8.19z"/>
	</g>
</g>
</svg>
