<?xml version="1.0" encoding="utf-8"?>
<!-- Generator: Adobe Illustrator 24.3.0, SVG Export Plug-In . SVG Version: 6.00 Build 0)  -->
<svg version="1.1" xmlns="http://www.w3.org/2000/svg" xmlns:xlink="http://www.w3.org/1999/xlink" x="0px" y="0px"
	 viewBox="0 0 13.74 14.89" enable-background="new 0 0 13.74 14.89" xml:space="preserve">
<g id="배경">
</g>
<g id="로그인_창">
</g>
<g id="오픈">
</g>
<g id="엑스">
</g>
<g id="선택">
</g>
<g id="클라우드">
</g>
<g id="Layer_8" display="none">
</g>
<g id="로컬드라이브">
	<g>
		<path fill="#737373" d="M4.92,5.79v5.51c0,0.17,0.13,0.31,0.3,0.31s0.3-0.13,0.3-0.3V5.8c0-0.17-0.13-0.31-0.3-0.31l0,0
			C5.05,5.49,4.92,5.63,4.92,5.79z"/>
		<path fill="#737373" d="M13.78,2.5c0-0.17-0.13-0.3-0.3-0.3H9.37V1.95C9.37,0.87,8.5,0,7.42,0h-1.1C5.25,0,4.37,0.87,4.37,1.95
			V2.2h-4.1c-0.17,0-0.31,0.13-0.31,0.3s0.13,0.3,0.3,0.3h0.81v11.8c0,0.17,0.13,0.3,0.3,0.3h11c0.17,0,0.3-0.13,0.3-0.3V2.8h0.8
			C13.64,2.8,13.78,2.66,13.78,2.5z M4.97,1.95c0-0.76,0.59-1.35,1.35-1.35h1.1c0.76,0,1.35,0.59,1.35,1.35V2.2h-3.8V1.95z
			 M12.07,14.29H1.67V2.8h10.4V14.29z"/>
		<path fill="#737373" d="M8.5,5.49C8.34,5.5,8.22,5.63,8.22,5.79v5.51c0,0.17,0.13,0.31,0.3,0.31s0.3-0.13,0.3-0.3V5.8
			c0-0.17-0.13-0.31-0.3-0.31H8.5z"/>
	</g>
</g>
</svg>
