<?xml version="1.0" encoding="utf-8"?>
<!-- Generator: Adobe Illustrator 24.3.0, SVG Export Plug-In . SVG Version: 6.00 Build 0)  -->
<svg version="1.1" xmlns="http://www.w3.org/2000/svg" xmlns:xlink="http://www.w3.org/1999/xlink" x="0px" y="0px"
	 viewBox="0 0 335 332.73" enable-background="new 0 0 335 332.73" xml:space="preserve">
<g id="배경">
</g>
<g id="로그인_창">
</g>
<g id="오픈">
</g>
<g id="엑스">
</g>
<g id="선택">
</g>
<g id="클라우드">
</g>
<g id="Layer_8" display="none">
</g>
<g id="로컬드라이브">
	<path fill="#272727" d="M326,332.73H9c-4.97,0-9-4.03-9-9V9c0-4.97,4.03-9,9-9h317c4.97,0,9,4.03,9,9v314.73
		C335,328.7,330.97,332.73,326,332.73z"/>
	<line fill="none" stroke="#706E6E" stroke-width="0.2665" stroke-miterlimit="10" x1="16.28" y1="54.41" x2="316.83" y2="54.41"/>
	<g>
		<g>
			<path fill="#FFFFFF" d="M154.06,21.8c0.64-0.65,1.45-0.98,2.43-0.98c1.32,0,2.28,0.44,2.89,1.31c0.34,0.49,0.52,0.98,0.54,1.48
				h-1.65c-0.11-0.38-0.24-0.67-0.41-0.86c-0.29-0.34-0.73-0.52-1.31-0.52c-0.59,0-1.05,0.24-1.39,0.73
				c-0.34,0.49-0.51,1.17-0.51,2.06c0,0.89,0.18,1.55,0.54,2c0.36,0.44,0.82,0.66,1.37,0.66c0.57,0,1-0.19,1.3-0.57
				c0.17-0.2,0.3-0.51,0.41-0.92h1.64c-0.14,0.86-0.5,1.57-1.09,2.11c-0.58,0.54-1.33,0.81-2.24,0.81c-1.13,0-2.01-0.37-2.66-1.1
				c-0.64-0.73-0.97-1.74-0.97-3.02C152.96,23.61,153.33,22.55,154.06,21.8z"/>
			<path fill="#FFFFFF" d="M162.47,28.89h-1.53v-7.92h1.53V28.89z"/>
			<path fill="#FFFFFF" d="M168.63,28.17c-0.49,0.61-1.24,0.92-2.25,0.92c-1.01,0-1.76-0.31-2.25-0.92
				c-0.49-0.61-0.74-1.34-0.74-2.2c0-0.84,0.25-1.58,0.74-2.2c0.49-0.62,1.24-0.93,2.25-0.93c1.01,0,1.76,0.31,2.25,0.93
				c0.49,0.62,0.74,1.35,0.74,2.2C169.37,26.83,169.12,27.56,168.63,28.17z M167.4,27.33c0.24-0.32,0.36-0.77,0.36-1.36
				c0-0.59-0.12-1.04-0.36-1.35c-0.24-0.32-0.58-0.47-1.03-0.47c-0.45,0-0.79,0.16-1.03,0.47c-0.24,0.32-0.36,0.77-0.36,1.35
				c0,0.59,0.12,1.04,0.36,1.36c0.24,0.32,0.59,0.48,1.03,0.48C166.82,27.8,167.16,27.64,167.4,27.33z"/>
			<path fill="#FFFFFF" d="M171.77,23.03v3.53c0,0.33,0.04,0.58,0.12,0.75c0.14,0.3,0.41,0.45,0.82,0.45c0.52,0,0.88-0.21,1.07-0.63
				c0.1-0.23,0.15-0.53,0.15-0.91v-3.19h1.55v5.85h-1.49v-0.83c-0.01,0.02-0.05,0.07-0.11,0.16c-0.06,0.09-0.12,0.17-0.2,0.24
				c-0.24,0.21-0.47,0.36-0.69,0.44c-0.22,0.08-0.48,0.12-0.79,0.12c-0.86,0-1.45-0.31-1.75-0.93c-0.17-0.34-0.25-0.85-0.25-1.52
				v-3.53H171.77z"/>
			<path fill="#FFFFFF" d="M179.85,23.13c0.28,0.16,0.5,0.37,0.67,0.65v-2.79h1.55v7.91h-1.49v-0.81c-0.22,0.35-0.47,0.6-0.75,0.76
				c-0.28,0.16-0.63,0.24-1.04,0.24c-0.68,0-1.26-0.28-1.73-0.83c-0.47-0.55-0.7-1.26-0.7-2.13c0-1,0.23-1.79,0.69-2.36
				c0.46-0.57,1.08-0.86,1.84-0.86C179.26,22.89,179.57,22.97,179.85,23.13z M180.22,27.3c0.23-0.32,0.34-0.74,0.34-1.25
				c0-0.72-0.18-1.23-0.54-1.54c-0.22-0.19-0.48-0.28-0.77-0.28c-0.45,0-0.78,0.17-0.99,0.51c-0.21,0.34-0.31,0.76-0.31,1.26
				c0,0.54,0.11,0.97,0.32,1.3c0.21,0.32,0.54,0.49,0.97,0.49C179.67,27.78,180,27.62,180.22,27.3z"/>
		</g>
	</g>
</g>
</svg>
