<?xml version="1.0" encoding="utf-8"?>
<!-- Generator: Adobe Illustrator 24.3.0, SVG Export Plug-In . SVG Version: 6.00 Build 0)  -->
<svg version="1.1" id="Layer_1" xmlns="http://www.w3.org/2000/svg" xmlns:xlink="http://www.w3.org/1999/xlink" x="0px" y="0px"
	 viewBox="0 0 43.07 15.11" style="enable-background:new 0 0 43.07 15.11;" xml:space="preserve">
<style type="text/css">
	.st0{fill:#272727;}
	.st1{fill:#737373;stroke:#A3A3A3;stroke-width:0.25;stroke-miterlimit:10;}
	.st2{fill:#FFFFFF;}
	.st3{fill:#1B1B1B;stroke:#504F4F;stroke-width:0.25;stroke-miterlimit:10;}
	.st4{opacity:0.45;}
	.st5{fill:#706E6E;}
	.st6{fill:#8BFF00;}
	.st7{fill:none;stroke:#706E6E;stroke-width:0.6977;stroke-linecap:round;stroke-linejoin:round;stroke-miterlimit:10;}
	.st8{fill:#504F4F;}
	.st9{fill:#9C9C9C;}
	.st10{fill:#272727;stroke:#272727;stroke-width:0.5;stroke-miterlimit:10;}
</style>
<path class="st8" d="M39.41,15.11H3.66C1.64,15.11,0,13.48,0,11.46v-7.8C0,1.64,1.64,0,3.66,0h35.76c2.02,0,3.66,1.64,3.66,3.66v7.8
	C43.07,13.48,41.43,15.11,39.41,15.11z"/>
<g>
	<path class="st2" d="M20.1,8.33c-0.59,0.11-1.21,0.18-1.81,0.22v2.3h-1.06V8.62c-0.62,0.02-1.21,0.02-1.74,0.02l-0.13-0.86
		c1.34,0,3.13-0.01,4.67-0.22L20.1,8.33z M15.6,6.66c1.1-0.21,1.61-0.78,1.64-1.4H15.8V4.44h1.44V3.72h1.06v0.72h1.44v0.82H18.3
		c0.03,0.58,0.54,1.1,1.61,1.29L19.5,7.36c-0.82-0.16-1.38-0.53-1.7-1.01c-0.33,0.54-0.91,0.94-1.77,1.12L15.6,6.66z M21.5,3.71
		v7.36h-1.05V3.71H21.5z"/>
	<path class="st2" d="M29.21,9.36v0.85h-6.67V9.36h2.77V7.71h1.06v1.65H29.21z M28.55,7.94c-1.3-0.23-2.24-0.92-2.72-1.83
		c-0.48,0.9-1.42,1.6-2.7,1.83L22.7,7.07c1.66-0.27,2.57-1.4,2.57-2.42V4.12h1.13v0.53c0,1.05,0.9,2.15,2.58,2.42L28.55,7.94z"/>
</g>
</svg>
