<?xml version="1.0" encoding="utf-8"?>
<!-- Generator: Adobe Illustrator 24.3.0, SVG Export Plug-In . SVG Version: 6.00 Build 0)  -->
<svg version="1.1" id="Layer_1" xmlns="http://www.w3.org/2000/svg" xmlns:xlink="http://www.w3.org/1999/xlink" x="0px" y="0px"
	 viewBox="0 0 18.69 18.66" style="enable-background:new 0 0 18.69 18.66;" xml:space="preserve">
<style type="text/css">
	.st0{fill:#272727;}
	.st1{fill:#737373;stroke:#A3A3A3;stroke-width:0.25;stroke-miterlimit:10;}
	.st2{fill:#FFFFFF;}
	.st3{fill:#1B1B1B;stroke:#504F4F;stroke-width:0.25;stroke-miterlimit:10;}
	.st4{opacity:0.45;}
	.st5{fill:#706E6E;}
	.st6{fill:#8BFF00;}
	.st7{fill:none;stroke:#706E6E;stroke-width:0.6977;stroke-linecap:round;stroke-linejoin:round;stroke-miterlimit:10;}
	.st8{fill:#504F4F;}
	.st9{fill:#9C9C9C;}
	.st10{fill:#272727;stroke:#272727;stroke-width:0.5;stroke-miterlimit:10;}
</style>
<path class="st5" d="M10.52,0.08c-2.48-0.32-4.93,0.35-6.9,1.88C-0.45,5.11-1.2,11,1.95,15.07c0.48,0.62,1.04,1.18,1.67,1.67
	c1.61,1.24,3.62,1.92,5.65,1.92c0.02,0,0.05,0,0.07,0h0.8c1.79-0.15,3.49-0.81,4.92-1.92c1.97-1.53,3.24-3.73,3.55-6.21
	c0.32-2.48-0.35-4.93-1.88-6.9C15.2,1.65,13,0.39,10.52,0.08z M13.84,16.79c-0.17,0.11-0.33,0.21-0.51,0.3l-0.32,0.14
	c-1.16,0.52-2.41,0.79-3.66,0.79s-2.5-0.26-3.66-0.79l-0.3-0.13c-0.16-0.08-0.31-0.17-0.46-0.27l-0.77-0.49l0.02-0.14
	c0.21-1.38,0.95-2.6,2.08-3.42c1.13-0.83,2.51-1.16,3.89-0.95c2.26,0.35,4.02,2.11,4.37,4.37l0.02,0.15L13.84,16.79z M6.88,8.66
	C6.88,8,7.13,7.38,7.6,6.91c0.46-0.47,1.08-0.73,1.74-0.73c0,0,0.01,0,0.01,0c0.65,0,1.27,0.25,1.73,0.71
	c0.47,0.46,0.73,1.08,0.73,1.74c0.01,1.36-1.1,2.47-2.45,2.48C7.99,11.11,6.89,10.01,6.88,8.66z M15.39,15.62l-0.27,0.26l-0.09-0.37
	c-0.48-1.9-1.87-3.41-3.71-4.05l-0.39-0.13l0.32-0.25c1.35-1.04,1.6-2.99,0.56-4.34c-1.04-1.35-2.99-1.6-4.34-0.56
	C6.1,7.22,5.85,9.17,6.9,10.52c0.16,0.21,0.35,0.4,0.56,0.56l0.32,0.25l-0.38,0.13c-1.85,0.64-3.24,2.16-3.71,4.05l-0.09,0.37
	l-0.27-0.26c-1.68-1.61-2.63-3.78-2.67-6.11C0.6,7.18,1.46,4.98,3.07,3.3c1.63-1.7,3.92-2.67,6.27-2.67c4.81,0,8.71,3.91,8.71,8.72
	C18.06,11.7,17.08,13.99,15.39,15.62z"/>
</svg>
