<?xml version="1.0" encoding="utf-8"?>
<!-- Generator: Adobe Illustrator 24.3.0, SVG Export Plug-In . SVG Version: 6.00 Build 0)  -->
<svg version="1.1" id="Layer_1" xmlns="http://www.w3.org/2000/svg" xmlns:xlink="http://www.w3.org/1999/xlink" x="0px" y="0px"
	 viewBox="0 0 254.61 148.82" style="enable-background:new 0 0 254.61 148.82;" xml:space="preserve">
<style type="text/css">
	.st0{fill:#272727;}
	.st1{fill:#737373;stroke:#A3A3A3;stroke-width:0.25;stroke-miterlimit:10;}
	.st2{fill:#FFFFFF;}
	.st3{fill:#1B1B1B;stroke:#504F4F;stroke-width:0.25;stroke-miterlimit:10;}
	.st4{opacity:0.45;}
	.st5{fill:#706E6E;}
	.st6{fill:#8BFF00;}
</style>
<path class="st0" d="M246.12,148.82H8.49c-4.69,0-8.49-3.8-8.49-8.49V8.49C0,3.8,3.8,0,8.49,0h237.64c4.69,0,8.49,3.8,8.49,8.49
	v131.85C254.61,145.02,250.81,148.82,246.12,148.82z"/>
<g>
	<g>
		<path class="st2" d="M109.18,15h1.87l2.8,7.92h-1.79l-0.52-1.63h-2.92l-0.54,1.63h-1.73L109.18,15z M109.07,19.93h2.03l-1-3.12
			L109.07,19.93z"/>
		<path class="st2" d="M118.02,19.17c-0.03-0.22-0.1-0.42-0.22-0.59c-0.17-0.24-0.44-0.35-0.8-0.35c-0.52,0-0.87,0.26-1.06,0.77
			c-0.1,0.27-0.15,0.63-0.15,1.08c0,0.43,0.05,0.77,0.15,1.03c0.18,0.49,0.53,0.73,1.03,0.73c0.36,0,0.61-0.1,0.76-0.29
			c0.15-0.19,0.24-0.44,0.27-0.75h1.56c-0.04,0.47-0.2,0.91-0.5,1.32c-0.48,0.67-1.19,1-2.13,1s-1.64-0.28-2.08-0.84
			c-0.44-0.56-0.67-1.28-0.67-2.17c0-1,0.25-1.79,0.74-2.34s1.17-0.84,2.03-0.84c0.73,0,1.34,0.16,1.8,0.49s0.75,0.91,0.83,1.75
			H118.02z"/>
		<path class="st2" d="M123.91,19.17c-0.03-0.22-0.1-0.42-0.22-0.59c-0.17-0.24-0.44-0.35-0.8-0.35c-0.52,0-0.87,0.26-1.06,0.77
			c-0.1,0.27-0.15,0.63-0.15,1.08c0,0.43,0.05,0.77,0.15,1.03c0.18,0.49,0.53,0.73,1.03,0.73c0.36,0,0.61-0.1,0.76-0.29
			s0.24-0.44,0.27-0.75h1.56c-0.04,0.47-0.21,0.91-0.51,1.32c-0.48,0.67-1.19,1-2.13,1c-0.94,0-1.64-0.28-2.08-0.84
			s-0.67-1.28-0.67-2.17c0-1,0.25-1.79,0.74-2.34c0.49-0.56,1.17-0.84,2.03-0.84c0.73,0,1.34,0.16,1.8,0.49s0.74,0.91,0.83,1.75
			H123.91z"/>
		<path class="st2" d="M131.19,22.21c-0.49,0.61-1.24,0.92-2.25,0.92c-1.01,0-1.76-0.31-2.25-0.92s-0.74-1.34-0.74-2.2
			c0-0.84,0.25-1.58,0.74-2.2c0.49-0.62,1.24-0.93,2.25-0.93c1.01,0,1.76,0.31,2.25,0.93c0.49,0.62,0.74,1.35,0.74,2.2
			C131.93,20.86,131.69,21.6,131.19,22.21z M129.97,21.36c0.24-0.32,0.36-0.77,0.36-1.36s-0.12-1.04-0.36-1.35
			c-0.24-0.32-0.58-0.47-1.03-0.47c-0.45,0-0.79,0.16-1.03,0.47c-0.24,0.32-0.36,0.77-0.36,1.35s0.12,1.04,0.36,1.36
			c0.24,0.32,0.59,0.48,1.03,0.48C129.38,21.84,129.73,21.68,129.97,21.36z"/>
		<path class="st2" d="M134.33,17.07v3.53c0,0.33,0.04,0.58,0.12,0.75c0.14,0.3,0.41,0.45,0.82,0.45c0.52,0,0.88-0.21,1.07-0.63
			c0.1-0.23,0.15-0.53,0.15-0.91v-3.19h1.55v5.85h-1.49v-0.83c-0.01,0.02-0.05,0.07-0.11,0.16c-0.06,0.09-0.12,0.17-0.2,0.24
			c-0.24,0.21-0.47,0.36-0.69,0.44c-0.22,0.08-0.48,0.12-0.79,0.12c-0.86,0-1.45-0.31-1.75-0.93c-0.17-0.34-0.25-0.85-0.25-1.52
			v-3.53H134.33z"/>
		<path class="st2" d="M144.03,17.4c0.38,0.32,0.58,0.84,0.58,1.58v3.94h-1.57v-3.56c0-0.31-0.04-0.54-0.12-0.71
			c-0.15-0.3-0.43-0.45-0.85-0.45c-0.52,0-0.87,0.22-1.06,0.66c-0.1,0.23-0.15,0.53-0.15,0.89v3.17h-1.53v-5.84h1.48v0.85
			c0.2-0.3,0.38-0.52,0.56-0.65c0.31-0.24,0.71-0.35,1.19-0.35C143.15,16.93,143.64,17.09,144.03,17.4z"/>
		<path class="st2" d="M145.2,18.21v-1.09h0.82v-1.63h1.51v1.63h0.95v1.09h-0.95v3.09c0,0.24,0.03,0.39,0.09,0.45
			c0.06,0.06,0.25,0.09,0.56,0.09c0.05,0,0.1,0,0.15,0c0.05,0,0.1,0,0.15-0.01v1.14L147.76,23c-0.72,0.02-1.22-0.1-1.48-0.38
			c-0.17-0.18-0.26-0.45-0.26-0.81v-3.6H145.2z"/>
	</g>
</g>
</svg>
