<?xml version="1.0" encoding="utf-8"?>
<!-- Generator: Adobe Illustrator 24.3.0, SVG Export Plug-In . SVG Version: 6.00 Build 0)  -->
<svg version="1.1" id="Layer_1" xmlns="http://www.w3.org/2000/svg" xmlns:xlink="http://www.w3.org/1999/xlink" x="0px" y="0px"
	 viewBox="0 0 232.48 23.94" style="enable-background:new 0 0 232.48 23.94;" xml:space="preserve">
<style type="text/css">
	.st0{fill:#272727;}
	.st1{fill:#737373;stroke:#A3A3A3;stroke-width:0.25;stroke-miterlimit:10;}
	.st2{fill:#FFFFFF;}
	.st3{fill:#1B1B1B;stroke:#504F4F;stroke-width:0.25;stroke-miterlimit:10;}
	.st4{opacity:0.45;}
	.st5{fill:#706E6E;}
	.st6{fill:#8BFF00;}
</style>
<path class="st3" d="M226.96,23.77H5.53c-2.98,0-5.4-2.42-5.4-5.4V5.56c0-2.98,2.42-5.4,5.4-5.4h221.44c2.98,0,5.4,2.42,5.4,5.4
	v12.81C232.36,21.35,229.94,23.77,226.96,23.77z"/>
<g class="st4">
	<g>
		<path class="st5" d="M73.71,14.18v0.54h-6.5v-0.54H73.71z M68.89,9.72h-1.11V9.19h5.32v0.53h-1.11v2.5h1.1v0.54H67.8v-0.54h1.1
			V9.72z M71.33,9.72h-1.78v2.5h1.78V9.72z"/>
		<path class="st5" d="M80.91,14.22v0.54H74.4v-0.54h2.92v-1.35h-2.1v-2.21h4.25V9.54H75.2V9h4.91v2.18h-4.25v1.16h4.41v0.53h-2.29
			v1.35H80.91z"/>
		<path class="st5" d="M84.8,12.52c-0.66-0.29-1.13-0.81-1.38-1.43c-0.25,0.7-0.74,1.29-1.44,1.6l-0.34-0.5
			c0.93-0.4,1.46-1.33,1.46-2.18V9.59h-1.32V9.06h3.18v0.54h-1.23v0.4c0,0.79,0.5,1.64,1.4,2.02L84.8,12.52z M82.84,13.18h4.82v2.47
			H87v-1.94h-4.17V13.18z M85.64,10.32V8.63h0.62v4.17h-0.62v-1.95h-1.08v-0.54H85.64z M87.66,8.48v4.38h-0.63V8.48H87.66z"/>
		<path class="st5" d="M95.31,14.18v0.54H88.8v-0.54H95.31z M94.56,12.87h-4.93V9.1h4.85v0.53H90.3v1.06h4.03v0.52H90.3v1.14h4.26
			V12.87z"/>
		<path class="st5" d="M96.05,13.53c1.3,0,3.1-0.01,4.67-0.25l0.06,0.49c-1.62,0.3-3.35,0.31-4.65,0.31L96.05,13.53z M100.25,10.69
			c0,1-0.8,1.69-1.92,1.69c-1.11,0-1.92-0.69-1.92-1.69c0-1.01,0.81-1.69,1.92-1.69C99.45,9,100.25,9.68,100.25,10.69z M97.05,10.69
			c0,0.66,0.54,1.13,1.28,1.13s1.28-0.46,1.28-1.13c0-0.67-0.54-1.13-1.28-1.13S97.05,10.02,97.05,10.69z M101.85,8.47v7.19h-0.66
			V8.47H101.85z"/>
		<path class="st5" d="M106.94,10.5c0,1.25,0.54,2.5,1.53,3.05l-0.4,0.48c-0.7-0.42-1.19-1.18-1.44-2.09
			c-0.25,0.98-0.77,1.82-1.48,2.27l-0.4-0.49c1-0.6,1.56-1.9,1.56-3.22V9.85h-1.36V9.31h3.27v0.54h-1.28V10.5z M108.86,8.63h0.62
			v6.64h-0.62v-3.69h-1.18v-0.54h1.18V8.63z M110.93,8.46v7.17h-0.63V8.46H110.93z"/>
		<path class="st5" d="M118.52,12.11v0.53h-6.49v-0.53h2.93V11.2h-2.09V8.77h4.82v2.43h-2.08v0.91H118.52z M112.76,13.38h4.97v2.27
			h-0.66v-1.74h-4.31V13.38z M113.51,10.68h3.53V9.29h-3.53V10.68z"/>
		<path class="st5" d="M125.72,11.57v0.53h-6.49v-0.53H125.72z M119.96,9.84c0-0.81,0.94-1.25,2.52-1.25s2.52,0.44,2.52,1.25
			s-0.94,1.24-2.52,1.24S119.96,10.65,119.96,9.84z M120.68,15.05h4.43v0.51h-5.07v-1.72h4.21v-0.64h-4.23v-0.5h4.88v1.62h-4.21
			V15.05z M120.63,9.84c0,0.48,0.67,0.75,1.85,0.75s1.85-0.27,1.85-0.75s-0.67-0.75-1.85-0.75S120.63,9.36,120.63,9.84z"/>
		<path class="st5" d="M131.98,10.46c0,0.99-0.79,1.65-1.88,1.65c-1.08,0-1.86-0.66-1.86-1.65c0-0.98,0.78-1.65,1.86-1.65
			C131.19,8.82,131.98,9.49,131.98,10.46z M128.88,10.46c0,0.66,0.51,1.11,1.22,1.11c0.73,0,1.24-0.46,1.24-1.11
			c0-0.65-0.51-1.1-1.24-1.1C129.39,9.36,128.88,9.82,128.88,10.46z M129.98,12.68v0.88h3.33v-0.88h0.65v2.87h-4.62v-2.87H129.98z
			 M129.98,15.02h3.33v-0.95h-3.33V15.02z M133.95,8.48v3.85h-0.66V8.48H133.95z"/>
		<path class="st5" d="M139.12,12.38c-0.88,0.15-1.61,0.18-3.04,0.18h-0.51v-2.13H138V9.44h-2.45V8.9h3.09v2.03h-2.43v1.09
			c1.33,0,2.02-0.03,2.85-0.17L139.12,12.38z M136.37,13.27h4.8v2.38h-0.66v-1.85h-4.14V13.27z M141.17,8.48v4.41h-0.66v-1.33h-1.4
			v-0.53h1.4v-0.96h-1.4V9.54h1.4V8.48H141.17z"/>
		<path class="st5" d="M144.89,9.62h1.77v0.53h-4.23V9.62h1.81V8.56h0.66V9.62z M146.32,12.4c0,0.98-0.73,1.65-1.75,1.65
			c-1.01,0-1.74-0.67-1.74-1.65c0-0.97,0.73-1.66,1.74-1.66C145.6,10.74,146.32,11.43,146.32,12.4z M145.7,12.4
			c0-0.65-0.47-1.11-1.13-1.11c-0.65,0-1.12,0.46-1.12,1.11c0,0.64,0.47,1.1,1.12,1.1C145.23,13.5,145.7,13.04,145.7,12.4z
			 M149.17,11.97h-1.18v3.67h-0.66V8.48h0.66v2.94h1.18V11.97z"/>
		<path class="st5" d="M151.8,10.5c0,1.15,0.54,2.37,1.48,2.94l-0.38,0.51c-0.68-0.42-1.16-1.17-1.42-2.05
			c-0.26,0.95-0.78,1.77-1.49,2.21l-0.41-0.5c0.98-0.58,1.58-1.86,1.58-3.09V9.15h0.63V10.5z M153.68,8.63h0.62v6.66h-0.62v-3.7
			h-1.18v-0.54h1.18V8.63z M155.76,8.47v7.17h-0.62V8.47H155.76z"/>
		<path class="st5" d="M163.38,14.18v0.54h-6.52v-0.54h1.6v-1.94c-0.6-0.31-0.96-0.83-0.96-1.48c0-1.12,1.09-1.84,2.61-1.84
			c1.53,0,2.61,0.72,2.61,1.84c0,0.65-0.35,1.16-0.94,1.47v1.94H163.38z M158.13,10.77c0,0.8,0.82,1.33,1.98,1.33
			s1.98-0.53,1.98-1.33c0-0.8-0.83-1.33-1.98-1.33S158.13,9.97,158.13,10.77z M159.12,14.18h2v-1.69c-0.3,0.07-0.65,0.11-1.01,0.11
			c-0.35,0-0.7-0.04-0.99-0.11V14.18z"/>
		<path class="st5" d="M164.23,14.61c0-0.33,0.24-0.57,0.53-0.57c0.29,0,0.53,0.24,0.53,0.57c0,0.33-0.24,0.55-0.53,0.55
			C164.47,15.16,164.23,14.93,164.23,14.61z"/>
	</g>
</g>
</svg>
