<?xml version="1.0" encoding="utf-8"?>
<!-- Generator: Adobe Illustrator 24.3.0, SVG Export Plug-In . SVG Version: 6.00 Build 0)  -->
<svg version="1.1" id="Layer_1" xmlns="http://www.w3.org/2000/svg" xmlns:xlink="http://www.w3.org/1999/xlink" x="0px" y="0px"
	 viewBox="0 0 255.12 107.26" style="enable-background:new 0 0 255.12 107.26;" xml:space="preserve">
<style type="text/css">
	.st0{fill:#272727;}
	.st1{fill:#737373;stroke:#A3A3A3;stroke-width:0.25;stroke-miterlimit:10;}
	.st2{fill:#FFFFFF;}
	.st3{fill:#1B1B1B;stroke:#504F4F;stroke-width:0.25;stroke-miterlimit:10;}
	.st4{opacity:0.45;}
	.st5{fill:#706E6E;}
	.st6{fill:#8BFF00;}
</style>
<path class="st0" d="M246.62,107.26H8.5c-4.7,0-8.5-3.81-8.5-8.5V8.5C0,3.81,3.81,0,8.5,0h238.11c4.7,0,8.5,3.81,8.5,8.5v90.26
	C255.12,103.46,251.31,107.26,246.62,107.26z"/>
<path class="st1" d="M236.13,90.71H19.5c-2.98,0-5.4-2.42-5.4-5.4V45.44c0-2.98,2.42-5.4,5.4-5.4h216.63c2.98,0,5.4,2.42,5.4,5.4
	v39.88C241.52,88.3,239.11,90.71,236.13,90.71z"/>
<g>
	<g>
		<path class="st2" d="M120.61,19.01c0.05,0.36,0.15,0.63,0.3,0.81c0.27,0.33,0.74,0.49,1.41,0.49c0.4,0,0.72-0.04,0.97-0.13
			c0.47-0.16,0.71-0.47,0.71-0.92c0-0.26-0.12-0.46-0.35-0.61c-0.23-0.14-0.6-0.26-1.1-0.37l-0.86-0.19
			c-0.84-0.19-1.42-0.39-1.74-0.61c-0.53-0.37-0.8-0.94-0.8-1.71c0-0.71,0.26-1.3,0.78-1.77s1.29-0.7,2.3-0.7
			c0.84,0,1.56,0.22,2.16,0.66c0.6,0.44,0.91,1.08,0.94,1.93h-1.59c-0.03-0.48-0.24-0.81-0.64-1.02c-0.26-0.13-0.59-0.2-0.99-0.2
			c-0.44,0-0.79,0.09-1.05,0.26c-0.26,0.17-0.39,0.41-0.39,0.72c0,0.28,0.13,0.49,0.39,0.63c0.17,0.09,0.52,0.2,1.05,0.33l1.39,0.33
			c0.61,0.14,1.07,0.33,1.37,0.57c0.47,0.37,0.71,0.91,0.71,1.62c0,0.72-0.28,1.32-0.84,1.8c-0.56,0.48-1.35,0.72-2.37,0.72
			c-1.04,0-1.86-0.24-2.46-0.71c-0.6-0.47-0.9-1.12-0.9-1.94H120.61z"/>
		<path class="st2" d="M128.73,17.89c0.28-0.04,0.49-0.08,0.61-0.13c0.22-0.09,0.33-0.24,0.33-0.44c0-0.24-0.08-0.41-0.25-0.5
			c-0.17-0.09-0.42-0.14-0.74-0.14c-0.37,0-0.63,0.09-0.78,0.27c-0.11,0.13-0.18,0.31-0.22,0.54h-1.48
			c0.03-0.51,0.18-0.93,0.43-1.26c0.41-0.52,1.1-0.77,2.09-0.77c0.64,0,1.22,0.13,1.72,0.38c0.5,0.25,0.75,0.73,0.75,1.44v2.69
			c0,0.19,0,0.41,0.01,0.68c0.01,0.2,0.04,0.34,0.09,0.41s0.13,0.13,0.23,0.18v0.23h-1.67c-0.05-0.12-0.08-0.23-0.1-0.33
			s-0.03-0.22-0.04-0.35c-0.21,0.23-0.46,0.42-0.73,0.59c-0.33,0.19-0.71,0.28-1.12,0.28c-0.53,0-0.97-0.15-1.32-0.45
			c-0.35-0.3-0.52-0.73-0.52-1.29c0-0.72,0.28-1.24,0.84-1.56c0.31-0.18,0.76-0.3,1.35-0.38L128.73,17.89z M129.66,18.61
			c-0.1,0.06-0.2,0.11-0.3,0.15c-0.1,0.04-0.24,0.07-0.41,0.1l-0.35,0.06c-0.33,0.06-0.56,0.13-0.7,0.21
			c-0.24,0.14-0.36,0.36-0.36,0.65c0,0.26,0.07,0.45,0.22,0.57c0.15,0.12,0.33,0.17,0.54,0.17c0.33,0,0.64-0.1,0.92-0.29
			s0.43-0.55,0.44-1.06V18.61z"/>
		<path class="st2" d="M135.91,15.6h1.64l-2.11,5.85h-1.61l-2.1-5.85h1.72l1.22,4.32L135.91,15.6z"/>
		<path class="st2" d="M142.02,15.72c0.41,0.18,0.75,0.47,1.01,0.87c0.24,0.35,0.4,0.75,0.47,1.21c0.04,0.27,0.06,0.66,0.05,1.16
			h-4.26c0.02,0.59,0.23,1,0.61,1.24c0.23,0.15,0.52,0.22,0.84,0.22c0.35,0,0.63-0.09,0.85-0.27c0.12-0.1,0.22-0.23,0.31-0.4h1.56
			c-0.04,0.35-0.23,0.7-0.57,1.06c-0.52,0.57-1.26,0.85-2.2,0.85c-0.78,0-1.47-0.24-2.06-0.72c-0.6-0.48-0.89-1.26-0.89-2.34
			c0-1.01,0.27-1.79,0.81-2.33c0.54-0.54,1.24-0.81,2.09-0.81C141.15,15.44,141.61,15.54,142.02,15.72z M139.73,17.04
			c-0.22,0.22-0.35,0.52-0.41,0.91h2.64c-0.03-0.41-0.16-0.71-0.41-0.93c-0.24-0.21-0.55-0.32-0.91-0.32
			C140.25,16.71,139.94,16.82,139.73,17.04z"/>
	</g>
</g>
</svg>
