<?xml version="1.0" encoding="utf-8"?>
<!-- Generator: Adobe Illustrator 24.3.0, SVG Export Plug-In . SVG Version: 6.00 Build 0)  -->
<svg version="1.1" id="Layer_1" xmlns="http://www.w3.org/2000/svg" xmlns:xlink="http://www.w3.org/1999/xlink" x="0px" y="0px"
	 viewBox="0 0 12.38 12.38" style="enable-background:new 0 0 12.38 12.38;" xml:space="preserve">
<style type="text/css">
	.st0{fill:#272727;}
	.st1{fill:#737373;stroke:#A3A3A3;stroke-width:0.25;stroke-miterlimit:10;}
	.st2{fill:#FFFFFF;}
	.st3{fill:#1B1B1B;stroke:#504F4F;stroke-width:0.25;stroke-miterlimit:10;}
	.st4{opacity:0.45;}
	.st5{fill:#706E6E;}
	.st6{fill:#8BFF00;}
</style>
<g>
	<circle class="st2" cx="6.19" cy="6.19" r="6.19"/>
	<path class="st0" d="M8.95,8.19L6.82,6.06l2.14-2.14c0.16-0.18,0.16-0.45,0-0.63c-0.08-0.1-0.2-0.16-0.33-0.17
		C8.5,3.11,8.38,3.15,8.27,3.25L6.19,5.32L4.1,3.23c-0.1-0.08-0.22-0.12-0.35-0.11S3.5,3.19,3.42,3.29
		C3.26,3.47,3.26,3.74,3.43,3.93l2.13,2.13L3.44,8.18c-0.2,0.17-0.23,0.48-0.05,0.68c0.17,0.2,0.48,0.23,0.69,0.05L6.19,6.8
		l2.06,2.06l0.05,0.05c0.09,0.08,0.2,0.12,0.32,0.12c0.14,0,0.27-0.06,0.37-0.17C9.16,8.66,9.14,8.36,8.95,8.19z"/>
</g>
</svg>
