<?xml version="1.0" encoding="utf-8"?>
<!-- Generator: Adobe Illustrator 24.3.0, SVG Export Plug-In . SVG Version: 6.00 Build 0)  -->
<svg version="1.1" id="Layer_1" xmlns="http://www.w3.org/2000/svg" xmlns:xlink="http://www.w3.org/1999/xlink" x="0px" y="0px"
	 viewBox="0 0 43.07 15.11" style="enable-background:new 0 0 43.07 15.11;" xml:space="preserve">
<style type="text/css">
	.st0{fill:#272727;}
	.st1{fill:#737373;stroke:#A3A3A3;stroke-width:0.25;stroke-miterlimit:10;}
	.st2{fill:#FFFFFF;}
	.st3{fill:#1B1B1B;stroke:#504F4F;stroke-width:0.25;stroke-miterlimit:10;}
	.st4{opacity:0.45;}
	.st5{fill:#706E6E;}
	.st6{fill:#8BFF00;}
</style>
<path class="st6" d="M39.41,15.11H3.66C1.64,15.11,0,13.48,0,11.46v-7.8C0,1.64,1.64,0,3.66,0h35.76c2.02,0,3.66,1.64,3.66,3.66v7.8
	C43.07,13.48,41.43,15.11,39.41,15.11z"/>
<g>
	<path class="st0" d="M17.37,5.53c0,1.29,0.58,2.65,1.81,3.21l-0.61,0.83c-0.83-0.41-1.4-1.17-1.72-2.09
		c-0.31,0.99-0.89,1.81-1.74,2.23l-0.62-0.83c1.23-0.58,1.81-1.99,1.81-3.36V5.27h-1.51V4.42h4.09v0.86h-1.51V5.53z M20.78,3.71
		v7.39h-1.06V7.14h-1.29V6.28h1.29V3.71H20.78z"/>
	<path class="st0" d="M25.69,7.87C24.88,7.63,24.32,7.15,24,6.54c-0.33,0.73-0.91,1.31-1.77,1.59L21.7,7.3
		c1.19-0.4,1.72-1.33,1.74-2.25h-1.46V4.2h3.98v0.85h-1.44c0.02,0.84,0.52,1.66,1.68,2.01L25.69,7.87z M27.68,9.66
		c0,0.9-0.96,1.42-2.49,1.42c-1.54,0-2.49-0.53-2.49-1.42c0-0.9,0.96-1.44,2.49-1.44C26.72,8.22,27.68,8.75,27.68,9.66z M26.63,9.66
		c0-0.42-0.5-0.62-1.44-0.62c-0.94,0-1.45,0.2-1.45,0.62c0,0.42,0.5,0.62,1.45,0.62C26.12,10.27,26.63,10.07,26.63,9.66z
		 M28.57,5.41v0.86H27.6v1.82h-1.06V3.71h1.06v1.7H28.57z"/>
</g>
</svg>
