<?xml version="1.0" encoding="utf-8"?>
<!-- Generator: Adobe Illustrator 24.3.0, SVG Export Plug-In . SVG Version: 6.00 Build 0)  -->
<svg version="1.1" id="Layer_1" xmlns="http://www.w3.org/2000/svg" xmlns:xlink="http://www.w3.org/1999/xlink" x="0px" y="0px"
	 viewBox="0 0 23.18 23.14" style="enable-background:new 0 0 23.18 23.14;" xml:space="preserve">
<style type="text/css">
	.st0{fill:#272727;}
	.st1{fill:#737373;stroke:#A3A3A3;stroke-width:0.25;stroke-miterlimit:10;}
	.st2{fill:#FFFFFF;}
	.st3{fill:#1B1B1B;stroke:#504F4F;stroke-width:0.25;stroke-miterlimit:10;}
	.st4{opacity:0.45;}
	.st5{fill:#706E6E;}
	.st6{fill:#8BFF00;}
	.st7{fill:#3A3A3A;}
	.st8{fill:none;stroke:#706E6E;stroke-width:0.6977;stroke-linecap:round;stroke-linejoin:round;stroke-miterlimit:10;}
	.st9{fill:none;stroke:#706E6E;stroke-width:0.2665;stroke-miterlimit:10;}
	.st10{fill:none;stroke:#706E6E;stroke-width:0.5393;stroke-miterlimit:10;}
	.st11{fill:#504F4F;}
	.st12{fill:#707070;}
	.st13{fill:#CFCFCF;}
</style>
<path class="st13" d="M13.05,0.1C9.98-0.3,6.94,0.53,4.49,2.43c-5.05,3.91-5.98,11.21-2.07,16.26c0.6,0.77,1.29,1.47,2.07,2.07
	c2,1.54,4.49,2.38,7.01,2.38c0.03,0,0.06,0,0.09,0h0.99c2.21-0.18,4.33-1,6.1-2.38c2.45-1.9,4.01-4.63,4.4-7.7s-0.44-6.11-2.33-8.56
	C18.86,2.05,16.12,0.49,13.05,0.1z M17.17,20.82c-0.21,0.13-0.41,0.27-0.63,0.37l-0.4,0.18c-1.44,0.65-2.99,0.98-4.54,0.98
	s-3.1-0.33-4.54-0.98l-0.37-0.16c-0.2-0.1-0.39-0.22-0.57-0.33l-0.96-0.61l0.03-0.18c0.27-1.71,1.18-3.22,2.58-4.25
	c1.4-1.02,3.12-1.44,4.83-1.18c2.81,0.43,4.99,2.61,5.42,5.42l0.03,0.18L17.17,20.82z M8.54,10.74c0-0.82,0.31-1.59,0.89-2.17
	c0.57-0.58,1.34-0.9,2.16-0.91c0.01,0,0.01,0,0.01,0c0.81,0,1.57,0.31,2.15,0.88c0.58,0.57,0.9,1.34,0.91,2.16
	c0.01,1.69-1.36,3.06-3.04,3.07C9.91,13.78,8.55,12.42,8.54,10.74z M19.08,19.38l-0.34,0.33l-0.12-0.46
	c-0.59-2.35-2.32-4.23-4.61-5.03l-0.48-0.17l0.4-0.31c1.68-1.29,1.98-3.71,0.69-5.39c-1.3-1.67-3.71-1.98-5.39-0.69
	c-1.68,1.3-1.98,3.71-0.69,5.39c0.2,0.26,0.43,0.49,0.69,0.69l0.4,0.31l-0.48,0.17c-2.29,0.8-4.01,2.68-4.61,5.03L4.45,19.7
	l-0.34-0.33c-2.08-2-3.26-4.69-3.31-7.58C0.74,8.91,1.81,6.18,3.81,4.1c2.02-2.1,4.86-3.31,7.78-3.32c5.96,0,10.81,4.85,10.8,10.81
	C22.4,14.52,21.19,17.35,19.08,19.38z"/>
</svg>
