<?xml version="1.0" encoding="utf-8"?>
<!-- Generator: Adobe Illustrator 24.3.0, SVG Export Plug-In . SVG Version: 6.00 Build 0)  -->
<svg version="1.1" id="Layer_1" xmlns="http://www.w3.org/2000/svg" xmlns:xlink="http://www.w3.org/1999/xlink" x="0px" y="0px"
	 viewBox="0 0 254.61 328.4" style="enable-background:new 0 0 254.61 328.4;" xml:space="preserve">
<style type="text/css">
	.st0{fill:#272727;}
	.st1{fill:#737373;stroke:#A3A3A3;stroke-width:0.25;stroke-miterlimit:10;}
	.st2{fill:#FFFFFF;}
	.st3{fill:#1B1B1B;stroke:#504F4F;stroke-width:0.25;stroke-miterlimit:10;}
	.st4{opacity:0.45;}
	.st5{fill:#706E6E;}
	.st6{fill:#8BFF00;}
	.st7{fill:#3A3A3A;}
	.st8{fill:none;stroke:#706E6E;stroke-width:0.6977;stroke-linecap:round;stroke-linejoin:round;stroke-miterlimit:10;}
	.st9{fill:none;stroke:#706E6E;stroke-width:0.2665;stroke-miterlimit:10;}
	.st10{fill:none;stroke:#706E6E;stroke-width:0.5393;stroke-miterlimit:10;}
	.st11{fill:#504F4F;}
	.st12{fill:#707070;}
	.st13{fill:#CFCFCF;}
</style>
<path class="st0" d="M246.12,328.4H8.49c-4.69,0-8.49-3.8-8.49-8.49V8.49C0,3.8,3.8,0,8.49,0h237.64c4.69,0,8.49,3.8,8.49,8.49
	v311.43C254.61,324.6,250.81,328.4,246.12,328.4z"/>
<g>
	<g>
		<path class="st2" d="M114.76,21.41c-1.05-0.29-1.77-0.9-2.2-1.67c-0.41,0.84-1.15,1.51-2.22,1.82l-0.62-1.02
			c1.5-0.45,2.16-1.53,2.16-2.61v-0.05h-1.86v-1.04h1.86v-1.01h1.32v1.01h1.85v1.04h-1.85v0.05c0,1.01,0.67,2.04,2.17,2.45
			L114.76,21.41z M117.51,23.78v1.05h-6.36v-2.9h1.32v1.85H117.51z M117.28,22.52h-1.33v-6.74h1.33V22.52z"/>
		<path class="st2" d="M126.96,21.29h-3.54v3.7h-1.34v-3.7h-3.44v-1.06h5.8c0.23-1.17,0.25-2.07,0.25-2.86h-5.1v-1.06h6.39v0.83
			c0,0.86,0,1.8-0.23,3.09h1.21V21.29z"/>
		<path class="st2" d="M135.96,22.36h-3.52v2.65h-1.32v-2.65h-3.48v-1.07h8.32V22.36z M128.05,19.79c1.92-0.21,2.9-1.1,3.05-1.9
			h-2.72v-1.05h2.74v-1.03h1.32v1.03h2.76v1.05h-2.73c0.16,0.78,1.15,1.69,3.05,1.9l-0.47,1.04c-1.56-0.19-2.67-0.82-3.26-1.65
			c-0.59,0.83-1.7,1.46-3.28,1.65L128.05,19.79z"/>
		<path class="st2" d="M141.39,16.73c0,2.76-1.05,5.13-4.11,6.68l-0.74-1.01c2.14-1.1,3.28-2.56,3.52-4.6h-3.01v-1.07H141.39z
			 M145.13,20.38h-1.29v4.59h-1.32v-9.19h1.32v3.52h1.29V20.38z"/>
	</g>
</g>
</svg>
