<?xml version="1.0" encoding="utf-8"?>
<!-- Generator: Adobe Illustrator 24.3.0, SVG Export Plug-In . SVG Version: 6.00 Build 0)  -->
<svg version="1.1" id="Layer_1" xmlns="http://www.w3.org/2000/svg" xmlns:xlink="http://www.w3.org/1999/xlink" x="0px" y="0px"
	 viewBox="0 0 229.19 20.89" style="enable-background:new 0 0 229.19 20.89;" xml:space="preserve">
<style type="text/css">
	.st0{fill:#272727;}
	.st1{fill:#737373;stroke:#A3A3A3;stroke-width:0.25;stroke-miterlimit:10;}
	.st2{fill:#FFFFFF;}
	.st3{fill:#1B1B1B;stroke:#504F4F;stroke-width:0.25;stroke-miterlimit:10;}
	.st4{opacity:0.45;}
	.st5{fill:#706E6E;}
	.st6{fill:#8BFF00;}
	.st7{fill:none;stroke:#706E6E;stroke-width:0.6977;stroke-linecap:round;stroke-linejoin:round;stroke-miterlimit:10;}
	.st8{fill:#504F4F;}
	.st9{fill:#9C9C9C;}
	.st10{fill:#272727;stroke:#272727;stroke-width:0.5;stroke-miterlimit:10;}
</style>
<path class="st3" d="M222.26,20.89H6.93C3.1,20.89,0,17.79,0,13.96V6.93C0,3.1,3.1,0,6.93,0h215.33c3.83,0,6.93,3.1,6.93,6.93v7.03
	C229.19,17.79,226.09,20.89,222.26,20.89z"/>
<g>
	<circle class="st7" cx="11.5" cy="9.71" r="3.68"/>
	<line class="st7" x1="14.47" y1="11.94" x2="17.99" y2="14.85"/>
</g>
<g class="st4">
	<g>
		<path class="st5" d="M25.3,9.88c0,1.53-0.76,2.5-1.82,2.5s-1.82-0.98-1.82-2.5c0-1.53,0.76-2.5,1.82-2.5S25.3,8.35,25.3,9.88z
			 M22.28,9.88c0,1.17,0.5,1.92,1.2,1.92c0.7,0,1.19-0.75,1.19-1.92c0-1.16-0.5-1.91-1.19-1.91C22.78,7.97,22.28,8.72,22.28,9.88z
			 M27.26,6.82v7.19h-0.66V6.82H27.26z"/>
		<path class="st5" d="M35.1,10.53v0.53h-6.5v-0.53H35.1z M33.62,7.51h-4.21v-0.5h4.85V8.7h-4.19v0.7h4.34v0.51h-4.99v-1.7h4.19
			V7.51z M29.47,11.72h4.8v2.18h-4.8V11.72z M30.11,13.37h3.52v-1.14h-3.52V13.37z"/>
		<path class="st5" d="M43.9,10.9v0.52h-6.48V10.9h2.92v-0.58c-1.27-0.05-1.99-0.41-1.99-1.04c0-0.68,0.84-1.05,2.32-1.05
			c1.46,0,2.31,0.37,2.31,1.05c0,0.63-0.73,0.98-1.98,1.04v0.58H43.9z M43.54,7.95h-5.77v-0.5h2.58V6.72H41v0.73h2.53V7.95z
			 M38.12,12h4.93v2H42.4v-1.49h-4.28V12z M40.67,9.86c1.06,0,1.63-0.2,1.63-0.58c0-0.37-0.58-0.58-1.63-0.58s-1.65,0.21-1.65,0.58
			C39.03,9.66,39.62,9.86,40.67,9.86z"/>
		<path class="st5" d="M51.1,10.6v0.53h-6.48V10.6H51.1z M45.35,8.5c0-0.9,0.98-1.43,2.52-1.43s2.52,0.54,2.52,1.43
			s-0.98,1.42-2.52,1.42S45.35,9.4,45.35,8.5z M46.11,13.3h4.28v0.54h-4.93v-2.08h0.66V13.3z M46.02,8.5c0,0.57,0.72,0.9,1.85,0.9
			c1.13,0,1.85-0.33,1.85-0.9c0-0.57-0.72-0.9-1.85-0.9C46.74,7.6,46.02,7.94,46.02,8.5z"/>
		<path class="st5" d="M57.37,9.88c0,1.53-0.76,2.5-1.82,2.5s-1.82-0.98-1.82-2.5c0-1.53,0.76-2.5,1.82-2.5S57.37,8.35,57.37,9.88z
			 M54.35,9.88c0,1.17,0.5,1.92,1.2,1.92c0.7,0,1.19-0.75,1.19-1.92c0-1.16-0.5-1.91-1.19-1.91C54.84,7.97,54.35,8.72,54.35,9.88z
			 M59.33,6.82v7.19h-0.66V6.82H59.33z"/>
		<path class="st5" d="M64.7,6.99h0.62v6.65H64.7v-3.57h-1.06v2h-2.73V7.66h2.73v1.87h1.06V6.99z M63.03,8.18h-1.5v3.37h1.5V8.18z
			 M66.75,6.82v7.16h-0.62V6.82H66.75z"/>
		<path class="st5" d="M69.87,10.26c-1.07,0-1.85-0.64-1.85-1.58c0-0.95,0.78-1.6,1.85-1.6c1.07,0,1.86,0.65,1.86,1.6
			C71.73,9.62,70.95,10.26,69.87,10.26z M69.87,9.74c0.7,0,1.22-0.44,1.22-1.06c0-0.62-0.51-1.06-1.22-1.06
			c-0.7,0-1.21,0.44-1.21,1.06C68.66,9.3,69.18,9.74,69.87,9.74z M73.98,13.38v0.52h-4.87v-1.8h3.98v-0.73h-4v-0.52h4.65v1.74h-3.98
			v0.79H73.98z M73.74,10.5h-0.66V6.82h0.66V10.5z"/>
		<path class="st5" d="M80.37,7.28c0,1.81-1.27,3.1-3.33,3.69l-0.27-0.51c1.7-0.49,2.77-1.42,2.9-2.64h-2.54V7.28H80.37z
			 M77.96,11.22h4.63v2.67h-4.63V11.22z M78.61,13.37h3.34v-1.62h-3.34V13.37z M82.59,6.82v4.09h-0.66V9.21h-1.56V8.67h1.56V6.82
			H82.59z"/>
		<path class="st5" d="M87.13,10.72c-0.66-0.27-1.16-0.8-1.42-1.42c-0.26,0.68-0.77,1.29-1.46,1.6l-0.35-0.5
			c0.94-0.42,1.5-1.37,1.5-2.18V7.25h0.63v0.97c0,0.81,0.53,1.64,1.46,2.01L87.13,10.72z M85.12,11.56h4.82V14h-0.66v-1.91h-4.17
			V11.56z M89.94,6.83v4.33h-0.63V9.23H88.4v1.89h-0.62V6.95h0.62V8.7h0.91V6.83H89.94z"/>
	</g>
</g>
</svg>
