<?xml version="1.0" encoding="utf-8"?>
<!-- Generator: Adobe Illustrator 24.3.0, SVG Export Plug-In . SVG Version: 6.00 Build 0)  -->
<svg version="1.1" id="Layer_1" xmlns="http://www.w3.org/2000/svg" xmlns:xlink="http://www.w3.org/1999/xlink" x="0px" y="0px"
	 viewBox="0 0 15.14 15.14" style="enable-background:new 0 0 15.14 15.14;" xml:space="preserve">
<style type="text/css">
	.st0{fill:#272727;}
	.st1{fill:#737373;stroke:#A3A3A3;stroke-width:0.25;stroke-miterlimit:10;}
	.st2{fill:#FFFFFF;}
	.st3{fill:#1B1B1B;stroke:#504F4F;stroke-width:0.25;stroke-miterlimit:10;}
	.st4{opacity:0.45;}
	.st5{fill:#706E6E;}
	.st6{fill:#8BFF00;}
	.st7{fill:none;stroke:#706E6E;stroke-width:0.6977;stroke-linecap:round;stroke-linejoin:round;stroke-miterlimit:10;}
	.st8{fill:#504F4F;}
	.st9{fill:#9C9C9C;}
	.st10{fill:#272727;stroke:#272727;stroke-width:0.5;stroke-miterlimit:10;}
</style>
<g>
	<circle class="st9" cx="7.57" cy="7.57" r="7.57"/>
	<path class="st10" d="M11.78,7.27l-3.94,0l0-3.94C7.83,3.16,7.7,3.03,7.53,3.02C7.35,3.01,7.19,3.14,7.17,3.33l0,3.84H3.33
		C3.14,7.19,3.01,7.35,3.02,7.53c0.01,0.17,0.14,0.3,0.31,0.31l3.94,0l0,3.94c-0.01,0.18,0.12,0.35,0.31,0.36
		c0.18,0.01,0.35-0.12,0.36-0.31c0-0.02,0-0.03,0-0.05V7.94l3.84,0c0.02,0,0.03,0,0.05,0c0.18-0.01,0.32-0.18,0.31-0.36
		C12.13,7.39,11.97,7.25,11.78,7.27z"/>
</g>
</svg>
