<?xml version="1.0" encoding="utf-8"?>
<!-- Generator: Adobe Illustrator 24.3.0, SVG Export Plug-In . SVG Version: 6.00 Build 0)  -->
<svg version="1.1" id="Layer_1" xmlns="http://www.w3.org/2000/svg" xmlns:xlink="http://www.w3.org/1999/xlink" x="0px" y="0px"
	 viewBox="0 0 254.61 328.4" style="enable-background:new 0 0 254.61 328.4;" xml:space="preserve">
<style type="text/css">
	.st0{fill:#272727;}
	.st1{fill:#737373;stroke:#A3A3A3;stroke-width:0.25;stroke-miterlimit:10;}
	.st2{fill:#FFFFFF;}
	.st3{fill:#1B1B1B;stroke:#504F4F;stroke-width:0.25;stroke-miterlimit:10;}
	.st4{opacity:0.45;}
	.st5{fill:#706E6E;}
	.st6{fill:#8BFF00;}
	.st7{fill:none;stroke:#706E6E;stroke-width:0.6977;stroke-linecap:round;stroke-linejoin:round;stroke-miterlimit:10;}
	.st8{fill:#504F4F;}
	.st9{fill:#9C9C9C;}
	.st10{fill:#272727;stroke:#272727;stroke-width:0.5;stroke-miterlimit:10;}
</style>
<path class="st0" d="M246.12,328.4H8.49c-4.69,0-8.49-3.8-8.49-8.49V8.49C0,3.8,3.8,0,8.49,0h237.64c4.69,0,8.49,3.8,8.49,8.49
	v311.43C254.61,324.6,250.81,328.4,246.12,328.4z"/>
<g>
	<g>
		<path class="st2" d="M117.53,21.48c0.05,0.36,0.15,0.63,0.3,0.81c0.27,0.33,0.74,0.49,1.41,0.49c0.4,0,0.72-0.04,0.97-0.13
			c0.47-0.16,0.71-0.47,0.71-0.92c0-0.26-0.12-0.46-0.35-0.61c-0.23-0.14-0.6-0.26-1.1-0.37l-0.86-0.19
			c-0.84-0.19-1.42-0.39-1.74-0.61c-0.53-0.37-0.8-0.94-0.8-1.71c0-0.71,0.26-1.3,0.78-1.77c0.52-0.47,1.29-0.7,2.3-0.7
			c0.84,0,1.56,0.22,2.16,0.66c0.6,0.44,0.91,1.08,0.94,1.93h-1.59c-0.03-0.48-0.24-0.81-0.64-1.02c-0.26-0.13-0.59-0.2-0.99-0.2
			c-0.44,0-0.79,0.09-1.05,0.26c-0.26,0.17-0.39,0.41-0.39,0.72c0,0.28,0.13,0.49,0.39,0.63c0.17,0.09,0.52,0.2,1.05,0.33l1.39,0.33
			c0.61,0.14,1.07,0.33,1.37,0.57c0.47,0.37,0.71,0.91,0.71,1.62c0,0.72-0.28,1.32-0.84,1.8c-0.56,0.48-1.35,0.72-2.37,0.72
			c-1.04,0-1.86-0.24-2.46-0.71c-0.6-0.47-0.9-1.12-0.9-1.94H117.53z"/>
		<path class="st2" d="M127.53,18.1c0.29,0.13,0.54,0.32,0.72,0.58c0.16,0.22,0.26,0.44,0.29,0.67c0.04,0.23,0.05,0.61,0.05,1.13
			v3.44h-1.56v-3.56c0-0.32-0.05-0.57-0.16-0.76c-0.14-0.27-0.4-0.41-0.79-0.41c-0.4,0-0.71,0.14-0.91,0.41
			c-0.21,0.27-0.31,0.66-0.31,1.16v3.17h-1.53v-7.89h1.53v2.79c0.22-0.34,0.48-0.58,0.77-0.71c0.29-0.13,0.6-0.2,0.92-0.2
			C126.91,17.91,127.24,17.98,127.53,18.1z"/>
		<path class="st2" d="M132.15,20.36c0.28-0.04,0.49-0.08,0.61-0.13c0.22-0.09,0.33-0.24,0.33-0.44c0-0.24-0.08-0.41-0.25-0.5
			c-0.17-0.09-0.42-0.14-0.74-0.14c-0.37,0-0.63,0.09-0.78,0.27c-0.11,0.13-0.18,0.31-0.22,0.54h-1.48
			c0.03-0.51,0.18-0.93,0.43-1.26c0.41-0.52,1.1-0.77,2.09-0.77c0.64,0,1.22,0.13,1.71,0.38c0.5,0.25,0.75,0.73,0.75,1.44v2.69
			c0,0.19,0,0.41,0.01,0.68c0.01,0.2,0.04,0.34,0.09,0.41c0.05,0.07,0.12,0.13,0.23,0.18v0.23h-1.67c-0.05-0.12-0.08-0.23-0.1-0.33
			c-0.02-0.1-0.03-0.22-0.04-0.35c-0.21,0.23-0.46,0.42-0.74,0.59c-0.33,0.19-0.71,0.28-1.12,0.28c-0.53,0-0.97-0.15-1.32-0.45
			c-0.35-0.3-0.52-0.73-0.52-1.29c0-0.72,0.28-1.24,0.84-1.56c0.31-0.18,0.76-0.3,1.35-0.38L132.15,20.36z M133.08,21.08
			c-0.1,0.06-0.2,0.11-0.3,0.15c-0.1,0.04-0.24,0.07-0.41,0.1l-0.35,0.06c-0.33,0.06-0.56,0.13-0.7,0.21
			c-0.24,0.14-0.36,0.36-0.36,0.65c0,0.26,0.07,0.45,0.22,0.57c0.15,0.12,0.33,0.17,0.54,0.17c0.33,0,0.64-0.1,0.92-0.29
			c0.28-0.19,0.43-0.55,0.44-1.06V21.08z"/>
		<path class="st2" d="M138.98,17.93c0.02,0,0.06,0,0.13,0.01v1.57c-0.1-0.01-0.18-0.02-0.26-0.02s-0.14-0.01-0.18-0.01
			c-0.62,0-1.03,0.2-1.24,0.6c-0.12,0.23-0.18,0.57-0.18,1.04v2.8h-1.54v-5.85h1.46v1.02c0.24-0.39,0.44-0.66,0.62-0.8
			c0.29-0.24,0.66-0.36,1.12-0.36C138.93,17.93,138.96,17.93,138.98,17.93z"/>
		<path class="st2" d="M143.6,18.19c0.41,0.18,0.75,0.47,1.01,0.87c0.24,0.35,0.4,0.75,0.47,1.21c0.04,0.27,0.06,0.66,0.05,1.16
			h-4.26c0.02,0.59,0.23,1,0.61,1.24c0.23,0.15,0.52,0.22,0.84,0.22c0.35,0,0.63-0.09,0.85-0.27c0.12-0.1,0.22-0.23,0.31-0.4h1.56
			c-0.04,0.35-0.23,0.7-0.57,1.06c-0.52,0.57-1.26,0.85-2.2,0.85c-0.78,0-1.47-0.24-2.06-0.72c-0.6-0.48-0.89-1.26-0.89-2.34
			c0-1.01,0.27-1.79,0.81-2.33c0.54-0.54,1.24-0.81,2.09-0.81C142.73,17.91,143.19,18.01,143.6,18.19z M141.31,19.51
			c-0.22,0.22-0.35,0.52-0.41,0.91h2.64c-0.03-0.41-0.16-0.71-0.41-0.93c-0.24-0.21-0.55-0.32-0.91-0.32
			C141.83,19.18,141.53,19.29,141.31,19.51z"/>
	</g>
</g>
</svg>
