<?xml version="1.0" encoding="utf-8"?>
<!-- Generator: Adobe Illustrator 24.3.0, SVG Export Plug-In . SVG Version: 6.00 Build 0)  -->
<svg version="1.1" id="Layer_1" xmlns="http://www.w3.org/2000/svg" xmlns:xlink="http://www.w3.org/1999/xlink" x="0px" y="0px"
	 viewBox="0 0 43.07 15.11" style="enable-background:new 0 0 43.07 15.11;" xml:space="preserve">
<style type="text/css">
	.st0{fill:#272727;}
	.st1{fill:#737373;stroke:#A3A3A3;stroke-width:0.25;stroke-miterlimit:10;}
	.st2{fill:#FFFFFF;}
	.st3{fill:#1B1B1B;stroke:#504F4F;stroke-width:0.25;stroke-miterlimit:10;}
	.st4{opacity:0.45;}
	.st5{fill:#706E6E;}
	.st6{fill:#8BFF00;}
	.st7{fill:none;stroke:#706E6E;stroke-width:0.6977;stroke-linecap:round;stroke-linejoin:round;stroke-miterlimit:10;}
	.st8{fill:#504F4F;}
	.st9{fill:#9C9C9C;}
	.st10{fill:#272727;stroke:#272727;stroke-width:0.5;stroke-miterlimit:10;}
</style>
<path class="st6" d="M39.41,15.11H3.66C1.64,15.11,0,13.48,0,11.46v-7.8C0,1.64,1.64,0,3.66,0h35.76c2.02,0,3.66,1.64,3.66,3.66v7.8
	C43.07,13.48,41.43,15.11,39.41,15.11z"/>
<g>
	<path d="M21.24,7.01v0.83h-6.63V7.01h2.46V5.72h1.06v1.29H21.24z M20.5,9.7c0,0.86-1.02,1.38-2.61,1.38
		c-1.58,0-2.61-0.53-2.61-1.38c0-0.86,1.02-1.39,2.61-1.39C19.48,8.3,20.5,8.83,20.5,9.7z M19.21,6.51
		c0.17-0.66,0.19-1.15,0.19-1.64h-4.05V4.04h5.1v0.61c0,0.58,0,1.21-0.21,1.97L19.21,6.51z M19.45,9.7c0-0.4-0.57-0.6-1.57-0.6
		c-0.99,0-1.56,0.2-1.56,0.6c0,0.39,0.57,0.59,1.56,0.59C18.88,10.29,19.45,10.09,19.45,9.7z"/>
	<path d="M28.47,8.66h-1.54v2.41h-1.07V8.66h-1.48v2.41h-1.06V8.66H21.8V7.81h6.67V8.66z M22.45,5.61c0-1,1.09-1.65,2.66-1.65
		c1.57,0,2.66,0.65,2.66,1.65c0,1.01-1.1,1.65-2.66,1.65C23.54,7.26,22.45,6.62,22.45,5.61z M23.53,5.61c0,0.53,0.62,0.81,1.58,0.81
		c0.96,0,1.58-0.28,1.58-0.81c0-0.52-0.62-0.81-1.58-0.81C24.15,4.8,23.53,5.09,23.53,5.61z"/>
</g>
</svg>
