<?xml version="1.0" encoding="utf-8"?>
<!-- Generator: Adobe Illustrator 24.3.0, SVG Export Plug-In . SVG Version: 6.00 Build 0)  -->
<svg version="1.1" xmlns="http://www.w3.org/2000/svg" xmlns:xlink="http://www.w3.org/1999/xlink" x="0px" y="0px"
	 viewBox="0 0 41.56 41.56" enable-background="new 0 0 41.56 41.56" xml:space="preserve">
<g id="배경">
</g>
<g id="로그인_창">
</g>
<g id="오픈">
</g>
<g id="엑스">
</g>
<g id="선택">
</g>
<g id="클라우드">
</g>
<g id="Layer_8" display="none">
</g>
<g id="로컬드라이브">
	<path fill="#737373" d="M37.52,41.56H4.04C1.81,41.56,0,39.75,0,37.52V4.04C0,1.81,1.81,0,4.04,0h33.47c2.23,0,4.04,1.81,4.04,4.04
		v33.47C41.56,39.75,39.75,41.56,37.52,41.56z"/>
	<g>
		<path d="M16.45,30c0.35,0.33,0.54,0.71,0.58,1.14h-0.66c-0.07-0.32-0.22-0.58-0.44-0.77c-0.22-0.19-0.53-0.28-0.93-0.28
			c-0.49,0-0.88,0.17-1.18,0.52s-0.45,0.88-0.45,1.6c0,0.59,0.13,1.07,0.4,1.43c0.27,0.37,0.67,0.55,1.21,0.55
			c0.49,0,0.87-0.19,1.13-0.58c0.14-0.2,0.24-0.47,0.31-0.8h0.66c-0.06,0.53-0.25,0.97-0.58,1.33c-0.39,0.43-0.93,0.65-1.59,0.65
			c-0.58,0-1.06-0.18-1.45-0.53c-0.52-0.47-0.77-1.19-0.77-2.17c0-0.74,0.19-1.35,0.58-1.82c0.42-0.52,1-0.77,1.73-0.77
			C15.62,29.49,16.11,29.66,16.45,30z"/>
		<path d="M17.75,29.63h0.62v5.02h-0.62V29.63z"/>
		<path d="M21.8,31.36c0.32,0.31,0.49,0.78,0.49,1.39c0,0.59-0.14,1.08-0.43,1.46s-0.73,0.58-1.33,0.58c-0.5,0-0.9-0.17-1.19-0.51
			c-0.29-0.34-0.44-0.8-0.44-1.37c0-0.62,0.15-1.1,0.46-1.47c0.31-0.36,0.73-0.55,1.25-0.55C21.08,30.89,21.48,31.04,21.8,31.36z
			 M21.42,33.79c0.15-0.31,0.22-0.65,0.22-1.03c0-0.34-0.05-0.62-0.16-0.83c-0.17-0.34-0.47-0.51-0.89-0.51
			c-0.37,0-0.64,0.14-0.81,0.43c-0.17,0.29-0.25,0.63-0.25,1.04c0,0.39,0.08,0.71,0.25,0.97c0.17,0.26,0.44,0.39,0.8,0.39
			C20.99,34.25,21.27,34.1,21.42,33.79z"/>
		<path d="M23.52,30.99v2.43c0,0.19,0.03,0.34,0.09,0.46c0.11,0.22,0.3,0.33,0.6,0.33c0.42,0,0.7-0.19,0.85-0.57
			c0.08-0.21,0.12-0.49,0.12-0.84v-1.8h0.62v3.66h-0.58l0.01-0.54c-0.08,0.14-0.18,0.26-0.29,0.35c-0.23,0.19-0.51,0.29-0.84,0.29
			c-0.51,0-0.86-0.17-1.05-0.52c-0.1-0.19-0.15-0.44-0.15-0.75v-2.49H23.52z"/>
		<path d="M28.67,31.11c0.11,0.07,0.23,0.19,0.37,0.36v-1.85h0.59v5.04h-0.55v-0.51c-0.14,0.23-0.31,0.39-0.51,0.49
			c-0.2,0.1-0.42,0.15-0.67,0.15c-0.41,0-0.76-0.17-1.06-0.51c-0.3-0.34-0.45-0.8-0.45-1.37c0-0.53,0.14-1,0.41-1.39
			s0.66-0.59,1.16-0.59C28.24,30.93,28.48,30.99,28.67,31.11z M27.29,33.85c0.17,0.26,0.43,0.4,0.8,0.4c0.28,0,0.52-0.12,0.7-0.37
			s0.27-0.6,0.27-1.05c0-0.46-0.09-0.8-0.28-1.03c-0.19-0.22-0.42-0.33-0.7-0.33c-0.31,0-0.56,0.12-0.75,0.36
			c-0.19,0.24-0.29,0.59-0.29,1.05C27.05,33.26,27.13,33.59,27.29,33.85z"/>
	</g>
	<path d="M20.6,24.93v-8.12h0.92v8.12l2.91-2.9l0.65,0.65l-4.02,4.02l-4.02-4.02l0.65-0.65L20.6,24.93z M30.25,14.31
		c-0.53-0.63-1.24-1.1-2.03-1.33c-0.16-1.92-1.76-3.4-3.69-3.39c-0.29,0-0.58,0.04-0.86,0.1c-1.98-2.33-5.47-2.62-7.81-0.65
		c-1.17,0.99-1.87,2.41-1.95,3.94c-1.78,0.51-3,2.14-3,3.99c0.01,2.29,1.86,4.15,4.15,4.15h4.62V20.2h-4.62
		c-1.78,0-3.23-1.45-3.23-3.24c0-1.55,1.1-2.88,2.62-3.17l0.37-0.07v-0.38c0-0.02,0-0.04,0-0.07c-0.01-2.55,2.05-4.62,4.6-4.63
		c1.46,0,2.83,0.68,3.71,1.85l0.2,0.26l0.31-0.1c0.28-0.09,0.58-0.14,0.87-0.15c1.53,0,2.77,1.24,2.77,2.77c0,0.02,0,0.04,0,0.06
		v0.38l0.37,0.07c0.73,0.14,1.39,0.53,1.87,1.11c1.15,1.37,0.97,3.4-0.4,4.55c-0.58,0.49-1.32,0.76-2.08,0.76h-4.62v0.92h4.62
		c2.29-0.01,4.15-1.87,4.14-4.16C31.21,15.99,30.87,15.05,30.25,14.31z"/>
</g>
</svg>
