<svg width="300" height="300" xmlns="http://www.w3.org/2000/svg">
 <!-- Created with Method Draw - http://github.com/duopixel/Method-Draw/ -->
 <g>
  <title>background</title>
  <rect fill="none" id="canvas_background" height="302" width="302" y="-1" x="-1"/>
  <g display="none" overflow="visible" y="0" x="0" height="100%" width="100%" id="canvasGrid">
   <rect fill="url(#gridpattern)" stroke-width="0" y="0" x="0" height="100%" width="100%"/>
  </g>
 </g>
 <g>
  <title>Layer 1</title>
  <path stroke="#000" id="svg_8" d="m48.80273,101.52741c0.00563,-2.24909 1.9241,-16.03877 4.2648,-30.64389c7.2987,-45.54146 7.40607,-45.74243 16.6729,-31.22736l5.48264,8.58773l16.03393,-8.49373c21.20787,-11.23446 46.51378,-15.39046 69.77581,-11.4592c9.87448,1.66885 20.35203,4.3813 23.28346,6.02764c5.82004,3.26855 5.44697,6.07555 -3.82909,28.80989c-5.084,12.4603 -5.572,12.81542 -14.35404,10.4464c-14.94733,-4.03194 -39.28589,-2.76197 -51.03665,2.6631l-11.01748,5.0867l7.73346,8.47067c4.25342,4.659 6.66294,9.16509 5.35453,10.01364c-1.30846,0.84858 -17.22772,2.50248 -35.37611,3.6752c-27.22874,1.75962 -32.99558,1.41763 -32.98815,-1.95681l-0.00001,-0.00001zm140.20669,125.56712l-11.79527,-16.39426l10.73966,-10.89806c11.05356,-11.21644 19.02554,-26.9642 22.53766,-44.52091l2.00426,-10.01887l-11.5599,1.93971c-6.35795,1.06698 -11.59902,0.92834 -11.64682,-0.30795c-0.22323,-5.77193 30.00549,-62.6701 32.94375,-62.00865c4.61999,1.04 51.49247,43.6421 51.49247,46.80098c0,1.40989 -4.92613,3.39011 -10.94687,4.4004l-10.94689,1.83685l-1.0804,19.58934c-1.38573,25.1241 -14.00156,54.12074 -31.56633,72.55303c-7.03504,7.3826 -14.04854,13.42283 -15.58552,13.42283c-1.53702,0 -8.10241,-7.37755 -14.5898,-16.39443l0,-0.00001zm-106.47596,45.95188c0,-1.81274 1.8531,-7.05629 4.11799,-11.65245c4.10924,-8.33886 4.08545,-8.37934 -11.23408,-19.05337c-23.96853,-16.70024 -41.78436,-46.34214 -47.38823,-78.8445l-1.83718,-10.65567l13.09914,-1.88405c27.00236,-3.88389 27.24894,-3.76649 32.65683,15.54624c3.64925,13.03224 8.13749,20.84219 17.81251,30.99505c7.11369,7.46509 13.92793,12.92816 15.14277,12.14028c1.21479,-0.78786 2.97312,-5.44325 3.90741,-10.34536c0.93428,-4.90211 2.88245,-8.91298 4.32926,-8.91298c3.32169,0 34.60201,51.75691 35.09861,58.07469c0.33164,4.21958 -16.57766,11.52545 -60.6459,26.20298c-2.81,0.93588 -5.05913,0.21989 -5.05913,-1.61087l-0.00001,0.00001z" fill-opacity="null" stroke-opacity="null" stroke-width="0" fill="#999999"/>
 </g>
</svg>