<?xml version="1.0" encoding="utf-8"?>
<!-- Generator: Adobe Illustrator 24.3.0, SVG Export Plug-In . SVG Version: 6.00 Build 0)  -->
<svg version="1.1" xmlns="http://www.w3.org/2000/svg" xmlns:xlink="http://www.w3.org/1999/xlink" x="0px" y="0px"
	 viewBox="0 0 23.09 23.05" style="enable-background:new 0 0 23.09 23.05;" xml:space="preserve">
<style type="text/css">
	.st0{fill:#272727;}
	.st1{fill:#232323;}
	.st2{fill:#38393A;}
	.st3{fill:none;stroke:#161616;stroke-width:0.5;stroke-miterlimit:10;}
	.st4{fill:#BDBDBD;}
	.st5{fill:#161616;}
	.st6{fill:#191818;}
	.st7{fill:#90FF00;}
	.st8{fill:none;stroke:#BBBBBB;stroke-miterlimit:10;}
	.st9{opacity:0.47;fill:none;stroke:#000000;stroke-miterlimit:10;}
	.st10{opacity:0.47;fill:none;stroke:#000000;stroke-width:0.9474;stroke-miterlimit:10;}
	.st11{fill:#1B1B1B;}
	.st12{opacity:0.82;fill:#313131;}
	.st13{fill:#CE5160;}
	.st14{fill:#CCC052;}
	.st15{fill:#FFA300;}
	.st16{fill:#1B1B1B;stroke:#504F4F;stroke-width:0.4015;stroke-miterlimit:10;}
	.st17{fill:#F800FF;}
	.st18{fill:#6C52CC;}
	.st19{fill:#A9AAC9;}
	.st20{opacity:0.47;fill:none;stroke:#000000;stroke-width:0.831;stroke-miterlimit:10;}
	.st21{opacity:0.88;fill:#494A4C;}
	.st22{fill-rule:evenodd;clip-rule:evenodd;fill:#919293;}
	.st23{opacity:0.44;fill-rule:evenodd;clip-rule:evenodd;fill:#FFFFFF;}
	.st24{fill:#919293;}
	.st25{fill:#1B1B1B;stroke:#504F4F;stroke-width:0.25;stroke-miterlimit:10;}
	.st26{fill-rule:evenodd;clip-rule:evenodd;fill:#D1D1D1;}
	.st27{fill:none;stroke:#454444;stroke-width:0.75;stroke-linecap:round;stroke-miterlimit:10;}
	.st28{fill:#D1D1D1;}
	.st29{fill:#666666;}
	.st30{fill:none;stroke:#919293;stroke-miterlimit:10;}
	.st31{fill:none;stroke:#90FF00;stroke-miterlimit:10;}
	.st32{opacity:0.44;fill:#494A4C;}
	.st33{fill:none;stroke:#D1D1D1;stroke-width:0.5;stroke-miterlimit:10;}
	.st34{fill:none;stroke:#4B4A4A;stroke-width:0.5;stroke-miterlimit:10;}
	.st35{fill:none;stroke:#90FF00;stroke-width:2;stroke-linecap:round;stroke-miterlimit:10;}
	.st36{fill:none;stroke:#706E6E;stroke-linecap:round;stroke-linejoin:round;stroke-miterlimit:10;}
	.st37{fill:none;stroke:#000000;stroke-width:2;stroke-miterlimit:10;}
	.st38{opacity:0.24;fill:none;stroke:#000000;stroke-width:0.75;stroke-miterlimit:10;}
	.st39{fill:#706E6E;}
	.st40{fill:#FFFFFF;}
	.st41{fill:#454444;}
	.st42{opacity:0.61;}
	.st43{opacity:0.35;fill:#FFFFFF;}
	.st44{stroke:#000000;stroke-width:0.51;stroke-miterlimit:10;}
	.st45{opacity:0.38;fill:none;stroke:#FFFFFF;stroke-width:0.5004;stroke-miterlimit:10;}
	.st46{opacity:0.38;fill:none;stroke:#FFFFFF;stroke-width:0.5;stroke-miterlimit:10;}
	.st47{fill:#0E0815;stroke:#000000;stroke-width:0.5164;stroke-miterlimit:10;}
	.st48{clip-path:url(#SVGID_2_);fill:#4284ED;}
	.st49{clip-path:url(#SVGID_4_);fill:#38A557;}
	.st50{clip-path:url(#SVGID_6_);fill:#F6B92B;}
	.st51{clip-path:url(#SVGID_8_);fill:#E4433A;}
	.st52{fill:#F8DE32;}
	.st53{fill:#371E1F;}
	.st54{clip-path:url(#SVGID_12_);fill:#F8DE32;}
	.st55{clip-path:url(#SVGID_18_);fill:#F8DE32;}
	.st56{clip-path:url(#SVGID_24_);fill:#F8DE32;}
	.st57{clip-path:url(#SVGID_30_);fill:#F8DE32;}
	.st58{opacity:0.65;fill:none;stroke:#FFFFFF;stroke-width:0.25;stroke-miterlimit:10;}
	.st59{clip-path:url(#SVGID_34_);fill:#4284ED;}
	.st60{clip-path:url(#SVGID_36_);fill:#38A557;}
	.st61{clip-path:url(#SVGID_38_);fill:#F6B92B;}
	.st62{clip-path:url(#SVGID_40_);fill:#E4433A;}
	.st63{clip-path:url(#SVGID_44_);fill:#F8DE32;}
	.st64{clip-path:url(#SVGID_50_);fill:#F8DE32;}
	.st65{clip-path:url(#SVGID_56_);fill:#F8DE32;}
	.st66{clip-path:url(#SVGID_62_);fill:#F8DE32;}
	.st67{opacity:0.34;}
	.st68{opacity:0.76;fill:#1B1B1B;stroke:#504F4F;stroke-width:0.25;stroke-miterlimit:10;}
	.st69{clip-path:url(#SVGID_66_);fill:#4284ED;}
	.st70{clip-path:url(#SVGID_68_);fill:#38A557;}
	.st71{clip-path:url(#SVGID_70_);fill:#F6B92B;}
	.st72{clip-path:url(#SVGID_72_);fill:#E4433A;}
	.st73{clip-path:url(#SVGID_76_);fill:#F8DE32;}
	.st74{clip-path:url(#SVGID_82_);fill:#F8DE32;}
	.st75{clip-path:url(#SVGID_88_);fill:#F8DE32;}
	.st76{clip-path:url(#SVGID_94_);fill:#F8DE32;}
	.st77{fill:#0E0815;stroke:#000000;stroke-width:0.4212;stroke-miterlimit:10;}
	.st78{opacity:0.38;fill:#FFFFFF;}
	.st79{fill:#504F4F;}
	.st80{opacity:0.51;fill:#FFFFFF;}
	.st81{opacity:0.45;}
	.st82{fill:none;stroke:#706E6E;stroke-width:0.2665;stroke-miterlimit:10;}
	.st83{opacity:0.19;}
	.st84{opacity:0.76;fill:#1B1B1B;stroke:#504F4F;stroke-width:0.2191;stroke-miterlimit:10;}
	.st85{fill:none;stroke:#706E6E;stroke-width:0.6977;stroke-linecap:round;stroke-linejoin:round;stroke-miterlimit:10;}
	.st86{fill:none;stroke:#706E6E;stroke-width:0.5393;stroke-miterlimit:10;}
	.st87{fill:#8EFC31;}
	.st88{fill:#707070;}
	.st89{fill:#CFCFCF;}
	.st90{display:none;}
	.st91{display:inline;fill:#232323;}
</style>
<g id="전체_배경">
</g>
<g id="Layer_1">
</g>
<g id="Layer_2">
</g>
<g id="Layer_3">
</g>
<g id="Layer_5">
</g>
<g id="로그인_배경">
	<path class="st40" d="M4.48,20.68c2.03,1.56,4.52,2.39,7.08,2.37c0.32,0,0.64,0,0.96,0c2.22-0.18,4.34-1,6.1-2.37l0,0
		c5.04-3.9,5.96-11.16,2.06-16.2S9.52-1.49,4.48,2.42s-5.96,11.16-2.06,16.2C3.01,19.39,3.71,20.08,4.48,20.68z M8.84,10.71
		c-0.01-1.5,1.2-2.71,2.7-2.72c1.5-0.01,2.71,1.2,2.72,2.7c0.01,1.5-1.2,2.71-2.7,2.72c0,0-0.01,0-0.01,0
		c-1.5,0-2.71-1.21-2.71-2.71l0,0V10.71z M17,20.2c-0.25,0.16-0.49,0.32-0.75,0.45l-0.38,0.17c-2.74,1.24-5.88,1.24-8.62,0
		l-0.36-0.16c-0.26-0.13-0.51-0.3-0.76-0.45l-0.54-0.35c0.51-3.3,3.6-5.57,6.91-5.05c2.61,0.4,4.65,2.45,5.05,5.05L17,20.2z
		 M11.55,1.29c5.66,0,10.25,4.59,10.24,10.26c0,2.79-1.14,5.45-3.14,7.38c-0.6-2.37-2.35-4.28-4.65-5.08
		c1.75-1.35,2.07-3.87,0.72-5.62c-1.35-1.75-3.87-2.07-5.62-0.72s-2.07,3.87-0.72,5.62c0.21,0.27,0.45,0.51,0.72,0.72
		c-2.31,0.8-4.05,2.71-4.65,5.08C0.37,15,0.25,8.51,4.17,4.43C6.1,2.43,8.77,1.29,11.55,1.29z"/>
</g>
<g id="로그인_창">
</g>
<g id="Layer_6" class="st90">
</g>
<g id="Layer_9">
</g>
</svg>
