<svg width="300" height="300" xmlns="http://www.w3.org/2000/svg">
 <!-- Created with Method Draw - http://github.com/duopixel/Method-Draw/ -->
 <g>
  <title>background</title>
  <rect fill="none" id="canvas_background" height="302" width="302" y="-1" x="-1"/>
  <g display="none" overflow="visible" y="0" x="0" height="100%" width="100%" id="canvasGrid">
   <rect fill="url(#gridpattern)" stroke-width="0" y="0" x="0" height="100%" width="100%"/>
  </g>
 </g>
 <g>
  <title>Layer 1</title>
  <path stroke="#000" id="svg_6" d="m151.09807,19.20181c-72.84514,0 -131.89626,58.93708 -131.89626,131.64154c0,72.70446 59.05112,131.64154 131.89626,131.64154c72.84514,0 131.89626,-58.93708 131.89626,-131.64154c0,-72.70446 -59.05112,-131.64154 -131.89626,-131.64154zm0,236.10156c-57.72617,0 -104.67122,-46.86345 -104.67122,-104.46002c0,-57.60563 46.94505,-104.46908 104.67122,-104.46908c57.72617,0 104.66215,46.85439 104.66215,104.46908c0,57.61469 -46.95413,104.46002 -104.66215,104.46002zm-0.00908,-202.96021c-5.01848,0 -9.06594,4.05775 -9.06594,9.05749l0,83.5191l-54.86754,23.948c-4.59196,2.01076 -6.67921,7.35468 -4.66456,11.93777c1.4883,3.39656 4.80976,5.42544 8.30364,5.42544c1.21605,0 2.45933,-0.24455 3.63908,-0.76989l60.13105,-26.2486c0.04538,-0.01811 0.08168,-0.03623 0.11798,-0.05434l0.0363,-0.01811c0.13613,-0.05434 0.20873,-0.18115 0.33578,-0.22644c0.9438,-0.47099 1.82408,-1.0235 2.53193,-1.76621c0.30855,-0.30795 0.48098,-0.70648 0.71693,-1.05973c0.4356,-0.57968 0.91658,-1.1503 1.17975,-1.84773c0.2178,-0.54345 0.23595,-1.13219 0.34485,-1.71187c0.11798,-0.58874 0.34485,-1.10501 0.34485,-1.69375l0,-89.4427c0,-4.99068 -4.06561,-9.04843 -9.08409,-9.04843z" stroke-opacity="null" stroke-width="0" fill="#999999"/>
 </g>
</svg>