<?xml version="1.0" encoding="utf-8"?>
<!-- Generator: Adobe Illustrator 24.3.0, SVG Export Plug-In . SVG Version: 6.00 Build 0)  -->
<svg version="1.1" xmlns="http://www.w3.org/2000/svg" xmlns:xlink="http://www.w3.org/1999/xlink" x="0px" y="0px"
	 viewBox="0 0 41.56 41.56" enable-background="new 0 0 41.56 41.56" xml:space="preserve">
<g id="배경">
</g>
<g id="로그인_창">
</g>
<g id="오픈">
</g>
<g id="엑스">
</g>
<g id="선택">
</g>
<g id="클라우드">
</g>
<g id="Layer_8" display="none">
</g>
<g id="로컬드라이브">
	<path fill="#737373" d="M37.52,41.56H4.04C1.81,41.56,0,39.75,0,37.52V4.04C0,1.81,1.81,0,4.04,0h33.47c2.23,0,4.04,1.81,4.04,4.04
		v33.47C41.56,39.75,39.75,41.56,37.52,41.56z"/>
	<g>
		<g>
			<path d="M4.51,29.63h0.68v4.42h2.52v0.6h-3.2V29.63z"/>
			<path d="M10.83,31.36c0.32,0.31,0.49,0.78,0.49,1.39c0,0.59-0.14,1.08-0.43,1.46s-0.73,0.58-1.33,0.58c-0.5,0-0.9-0.17-1.19-0.51
				c-0.29-0.34-0.44-0.8-0.44-1.37c0-0.61,0.16-1.1,0.46-1.47c0.31-0.36,0.73-0.55,1.25-0.55C10.11,30.89,10.51,31.04,10.83,31.36z
				 M10.45,33.79c0.15-0.31,0.22-0.65,0.22-1.03c0-0.34-0.05-0.62-0.16-0.83c-0.17-0.34-0.47-0.5-0.89-0.5
				c-0.37,0-0.64,0.14-0.81,0.43c-0.17,0.29-0.25,0.63-0.25,1.04c0,0.39,0.08,0.71,0.25,0.97c0.17,0.26,0.44,0.39,0.8,0.39
				C10.02,34.25,10.3,34.1,10.45,33.79z"/>
			<path d="M14.35,31.19c0.26,0.2,0.42,0.55,0.47,1.04h-0.6c-0.04-0.23-0.12-0.41-0.25-0.56s-0.34-0.22-0.62-0.22
				c-0.39,0-0.67,0.19-0.84,0.57c-0.11,0.25-0.16,0.55-0.16,0.92c0,0.37,0.08,0.67,0.23,0.93c0.15,0.25,0.4,0.38,0.73,0.38
				c0.25,0,0.46-0.08,0.61-0.23c0.15-0.16,0.25-0.37,0.31-0.64h0.6c-0.07,0.49-0.24,0.84-0.51,1.06s-0.62,0.34-1.05,0.34
				c-0.48,0-0.86-0.17-1.15-0.53c-0.28-0.35-0.43-0.79-0.43-1.31c0-0.64,0.16-1.14,0.47-1.5c0.31-0.36,0.71-0.54,1.19-0.54
				C13.76,30.89,14.09,30.99,14.35,31.19z"/>
			<path d="M17.25,32.44c0.14-0.02,0.24-0.08,0.28-0.18c0.03-0.05,0.04-0.13,0.04-0.24c0-0.21-0.07-0.36-0.22-0.46
				c-0.15-0.1-0.36-0.14-0.64-0.14c-0.32,0-0.55,0.09-0.68,0.26c-0.08,0.1-0.12,0.24-0.15,0.43h-0.57c0.01-0.45,0.16-0.77,0.44-0.94
				c0.28-0.18,0.61-0.27,0.98-0.27c0.43,0,0.78,0.08,1.05,0.25c0.27,0.16,0.4,0.42,0.4,0.77v2.11c0,0.06,0.01,0.12,0.04,0.15
				c0.03,0.04,0.08,0.06,0.17,0.06c0.03,0,0.06,0,0.09,0c0.03,0,0.07-0.01,0.11-0.02v0.46c-0.1,0.03-0.17,0.04-0.22,0.05
				c-0.05,0.01-0.12,0.01-0.21,0.01c-0.21,0-0.37-0.08-0.46-0.23c-0.05-0.08-0.09-0.19-0.11-0.34c-0.12,0.16-0.3,0.31-0.54,0.43
				c-0.23,0.12-0.49,0.18-0.78,0.18c-0.34,0-0.62-0.1-0.83-0.31c-0.22-0.21-0.32-0.46-0.32-0.77c0-0.34,0.11-0.6,0.32-0.79
				s0.49-0.3,0.83-0.34L17.25,32.44z M15.96,34.1c0.13,0.1,0.28,0.15,0.46,0.15c0.22,0,0.43-0.05,0.63-0.15
				c0.34-0.17,0.51-0.44,0.51-0.82v-0.5c-0.08,0.05-0.17,0.09-0.29,0.12s-0.23,0.05-0.35,0.07l-0.37,0.05
				c-0.22,0.03-0.39,0.08-0.5,0.14c-0.19,0.11-0.29,0.28-0.29,0.51C15.76,33.86,15.83,34,15.96,34.1z"/>
			<path d="M19.06,29.63h0.62v5.02h-0.62V29.63z"/>
			<path d="M22.38,29.63h2.01c0.68,0,1.21,0.25,1.58,0.73c0.33,0.44,0.5,1.01,0.5,1.7c0,0.53-0.1,1.01-0.3,1.45
				c-0.35,0.76-0.95,1.14-1.8,1.14h-2V29.63z M24.25,34.07c0.23,0,0.41-0.02,0.55-0.07c0.26-0.09,0.47-0.26,0.64-0.51
				c0.13-0.2,0.23-0.46,0.28-0.78c0.03-0.19,0.05-0.37,0.05-0.53c0-0.62-0.12-1.11-0.36-1.45c-0.24-0.34-0.63-0.52-1.17-0.52h-1.18
				v3.86H24.25z"/>
			<path d="M27.2,30.99h0.58v0.63c0.05-0.12,0.17-0.27,0.35-0.45c0.19-0.18,0.4-0.26,0.65-0.26c0.01,0,0.03,0,0.06,0
				c0.03,0,0.07,0.01,0.14,0.01v0.65c-0.04-0.01-0.07-0.01-0.1-0.01c-0.03,0-0.06,0-0.1,0c-0.31,0-0.55,0.1-0.71,0.3
				c-0.17,0.2-0.25,0.43-0.25,0.69v2.11H27.2V30.99z"/>
			<path d="M29.37,29.63H30v0.7h-0.62V29.63z M29.37,31.01H30v3.64h-0.62V31.01z"/>
			<path d="M31.09,30.99l0.98,2.98l1.02-2.98h0.67l-1.38,3.66h-0.66l-1.35-3.66H31.09z"/>
			<path d="M36.41,31.09c0.24,0.12,0.43,0.28,0.55,0.47c0.12,0.18,0.2,0.4,0.25,0.65c0.04,0.17,0.05,0.44,0.05,0.81H34.6
				c0.01,0.37,0.1,0.67,0.26,0.9c0.16,0.23,0.42,0.34,0.76,0.34c0.32,0,0.57-0.11,0.76-0.32c0.11-0.12,0.18-0.27,0.23-0.43h0.61
				c-0.02,0.13-0.07,0.28-0.16,0.45c-0.09,0.17-0.19,0.3-0.3,0.41c-0.19,0.18-0.42,0.31-0.69,0.37c-0.15,0.04-0.31,0.05-0.5,0.05
				c-0.45,0-0.84-0.17-1.15-0.5c-0.32-0.33-0.47-0.8-0.47-1.39c0-0.59,0.16-1.07,0.48-1.43c0.32-0.37,0.73-0.55,1.24-0.55
				C35.91,30.91,36.16,30.97,36.41,31.09z M36.63,32.53c-0.03-0.27-0.08-0.48-0.17-0.64c-0.17-0.3-0.45-0.44-0.84-0.44
				c-0.28,0-0.52,0.1-0.71,0.31c-0.19,0.2-0.29,0.46-0.3,0.78H36.63z"/>
		</g>
		<g transform="translate(0,-952.36218)">
			<path stroke="#000000" stroke-width="0.51" stroke-miterlimit="10" d="M12.12,962.41c-0.09,0.02-0.17,0.11-0.17,0.21v13.13
				c0,0.11,0.1,0.21,0.21,0.21H29.4c0.11,0,0.21-0.1,0.21-0.21v-10.26c0-0.11-0.1-0.21-0.21-0.21h-8.32l-2.61-2.81
				c-0.04-0.04-0.09-0.06-0.15-0.06H12.12z M12.37,962.82h5.87l2.6,2.8c0.04,0.04,0.09,0.07,0.15,0.07h8.21v9.85H12.37V962.82z
				 M20.78,967.54c-0.11,0-0.21,0.09-0.21,0.21v5.25l-1.7-1.71c-0.08-0.08-0.21-0.08-0.29,0c-0.08,0.08-0.07,0.22,0,0.29l2.04,2.03
				c0.05,0.05,0.09,0.08,0.16,0.08c0.07,0,0.11-0.04,0.16-0.08l2.04-2.03c0.07-0.08,0.08-0.21,0-0.29c-0.08-0.08-0.21-0.08-0.29,0
				l-1.7,1.71v-5.25C20.99,967.63,20.89,967.54,20.78,967.54z"/>
		</g>
	</g>
</g>
</svg>
