<?xml version="1.0" encoding="utf-8"?>
<!-- Generator: Adobe Illustrator 24.3.0, SVG Export Plug-In . SVG Version: 6.00 Build 0)  -->
<svg version="1.1" xmlns="http://www.w3.org/2000/svg" xmlns:xlink="http://www.w3.org/1999/xlink" x="0px" y="0px"
	 viewBox="0 0 13.74 13.74" enable-background="new 0 0 13.74 13.74" xml:space="preserve">
<g id="배경">
</g>
<g id="로그인_창">
</g>
<g id="오픈">
</g>
<g id="엑스">
</g>
<g id="선택">
</g>
<g id="클라우드">
</g>
<g id="Layer_8" display="none">
</g>
<g id="로컬드라이브">
	<g>
		<g>
			<g>
				<path fill="#3B3B3C" d="M11.17,8.59c-0.97,0-1.82,0.54-2.26,1.34L5.03,7.66c0.08-0.25,0.12-0.51,0.12-0.79
					c0-0.28-0.04-0.54-0.13-0.79l3.88-2.26c0.44,0.8,1.29,1.34,2.26,1.34c1.42,0,2.58-1.16,2.58-2.58S12.59,0,11.17,0
					S8.59,1.16,8.59,2.58c0,0.14,0.01,0.28,0.04,0.41l-4,2.33C4.16,4.7,3.41,4.29,2.58,4.29C1.16,4.29,0,5.45,0,6.87
					s1.16,2.58,2.58,2.58c0.84,0,1.58-0.4,2.05-1.03l4,2.33c-0.02,0.13-0.04,0.27-0.04,0.41c0,1.42,1.16,2.58,2.58,2.58
					s2.58-1.16,2.58-2.58S12.59,8.59,11.17,8.59z M11.17,0.86c0.95,0,1.72,0.77,1.72,1.72s-0.77,1.72-1.72,1.72
					c-0.95,0-1.72-0.77-1.72-1.72S10.22,0.86,11.17,0.86z M2.58,8.59c-0.95,0-1.72-0.77-1.72-1.72s0.77-1.72,1.72-1.72
					s1.72,0.77,1.72,1.72S3.52,8.59,2.58,8.59z M11.17,12.88c-0.95,0-1.72-0.77-1.72-1.72c0-0.95,0.77-1.72,1.72-1.72
					c0.95,0,1.72,0.77,1.72,1.72C12.88,12.11,12.11,12.88,11.17,12.88z"/>
			</g>
		</g>
	</g>
</g>
</svg>
