<?xml version="1.0" encoding="utf-8"?>
<!-- Generator: Adobe Illustrator 24.3.0, SVG Export Plug-In . SVG Version: 6.00 Build 0)  -->
<svg version="1.1" id="Layer_1" xmlns="http://www.w3.org/2000/svg" xmlns:xlink="http://www.w3.org/1999/xlink" x="0px" y="0px"
	 viewBox="0 0 248.31 34.73" style="enable-background:new 0 0 248.31 34.73;" xml:space="preserve">
<style type="text/css">
	.st0{fill:#272727;}
	.st1{fill:#FFFFFF;}
	.st2{clip-path:url(#SVGID_2_);fill:#3E80EF;}
	.st3{clip-path:url(#SVGID_4_);fill:#32A554;}
	.st4{clip-path:url(#SVGID_6_);fill:#F7B900;}
	.st5{clip-path:url(#SVGID_8_);fill:#E54133;}
	.st6{fill:#F8DF02;}
	.st7{fill:#381E1F;}
	.st8{clip-path:url(#SVGID_12_);fill:#F8DF02;}
	.st9{clip-path:url(#SVGID_18_);fill:#F8DF02;}
	.st10{clip-path:url(#SVGID_24_);fill:#F8DF02;}
	.st11{clip-path:url(#SVGID_30_);fill:#F8DF02;}
	.st12{fill:#8BFF00;}
	.st13{fill:#0F0F0F;}
	.st14{opacity:0.48;}
	.st15{opacity:0.65;fill:#FFFFFF;}
</style>
<path class="st13" d="M230.47,34.73H17.01c-9.59,0-17.36-7.77-17.36-17.36v0C-0.36,7.77,7.42,0,17.01,0h213.47
	c9.59,0,17.36,7.77,17.36,17.36v0C247.84,26.95,240.06,34.73,230.47,34.73z"/>
<g>
	<g>
		<path class="st0" d="M105.05,12.76h1.26v8.21H111v1.11h-5.94V12.76z"/>
		<path class="st0" d="M119.71,14.1c0.62,0.83,0.93,1.88,0.93,3.17c0,1.39-0.35,2.55-1.06,3.47c-0.83,1.08-2.01,1.62-3.55,1.62
			c-1.43,0-2.56-0.47-3.38-1.42c-0.73-0.91-1.1-2.07-1.1-3.47c0-1.26,0.31-2.34,0.94-3.24c0.8-1.15,1.99-1.73,3.57-1.73
			C117.7,12.51,118.91,13.04,119.71,14.1z M118.59,20.04c0.5-0.8,0.75-1.72,0.75-2.75c0-1.1-0.29-1.98-0.86-2.65
			c-0.57-0.67-1.36-1-2.35-1c-0.96,0-1.75,0.33-2.36,0.99c-0.61,0.66-0.91,1.64-0.91,2.93c0,1.03,0.26,1.9,0.78,2.61
			c0.52,0.71,1.37,1.06,2.54,1.06C117.29,21.24,118.09,20.84,118.59,20.04z"/>
		<path class="st0" d="M128.08,13.03c0.91,0.49,1.47,1.34,1.68,2.56h-1.25c-0.15-0.68-0.46-1.18-0.93-1.49
			c-0.47-0.31-1.06-0.47-1.77-0.47c-0.85,0-1.56,0.32-2.14,0.97s-0.87,1.61-0.87,2.89c0,1.11,0.24,2.01,0.72,2.71
			c0.48,0.7,1.25,1.04,2.33,1.04c0.83,0,1.51-0.24,2.05-0.73c0.54-0.49,0.82-1.28,0.83-2.37h-2.92V17.1h4.09v4.99h-0.81l-0.3-1.2
			c-0.42,0.47-0.79,0.8-1.12,0.98c-0.55,0.31-1.24,0.47-2.08,0.47c-1.09,0-2.02-0.36-2.8-1.07c-0.85-0.9-1.28-2.13-1.28-3.69
			c0-1.56,0.42-2.8,1.25-3.73c0.79-0.88,1.82-1.32,3.08-1.32C126.71,12.52,127.45,12.69,128.08,13.03z"/>
		<path class="st0" d="M132.01,12.76h1.28v9.32h-1.28V12.76z"/>
		<path class="st0" d="M135.08,12.76h1.49l4.65,7.53v-7.53h1.21v9.32h-1.42l-4.72-7.52v7.52h-1.21V12.76z"/>
	</g>
</g>
</svg>
