<?xml version="1.0" encoding="utf-8"?>
<!-- Generator: Adobe Illustrator 24.3.0, SVG Export Plug-In . SVG Version: 6.00 Build 0)  -->
<svg version="1.1" id="Layer_1" xmlns="http://www.w3.org/2000/svg" xmlns:xlink="http://www.w3.org/1999/xlink" x="0px" y="0px"
	 viewBox="0 0 248.31 34.73" style="enable-background:new 0 0 248.31 34.73;" xml:space="preserve">
<style type="text/css">
	.st0{fill:#272727;}
	.st1{fill:#FFFFFF;}
	.st2{clip-path:url(#SVGID_2_);fill:#3E80EF;}
	.st3{clip-path:url(#SVGID_4_);fill:#32A554;}
	.st4{clip-path:url(#SVGID_6_);fill:#F7B900;}
	.st5{clip-path:url(#SVGID_8_);fill:#E54133;}
	.st6{fill:#F8DF02;}
	.st7{fill:#381E1F;}
	.st8{clip-path:url(#SVGID_12_);fill:#F8DF02;}
	.st9{clip-path:url(#SVGID_18_);fill:#F8DF02;}
	.st10{clip-path:url(#SVGID_24_);fill:#F8DF02;}
	.st11{clip-path:url(#SVGID_30_);fill:#F8DF02;}
	.st12{fill:#8BFF00;}
	.st13{fill:#0F0F0F;}
	.st14{opacity:0.48;}
	.st15{opacity:0.65;fill:#FFFFFF;}
</style>
<path class="st13" d="M230.89,34.73H17.42c-9.59,0-17.36-7.77-17.36-17.36v0C0.06,7.77,7.83,0,17.42,0h213.47
	c9.59,0,17.36,7.77,17.36,17.36v0C248.25,26.95,240.48,34.73,230.89,34.73z"/>
<g>
	<path class="st0" d="M93.11,13.09h4.24c0.7,0,1.27,0.1,1.73,0.31c0.86,0.4,1.29,1.13,1.29,2.2c0,0.56-0.12,1.02-0.35,1.37
		c-0.23,0.36-0.55,0.64-0.97,0.86c0.36,0.15,0.64,0.34,0.82,0.58c0.18,0.24,0.29,0.63,0.31,1.17l0.04,1.25
		c0.01,0.36,0.04,0.62,0.09,0.79c0.08,0.3,0.21,0.49,0.41,0.57v0.21h-1.55c-0.04-0.08-0.08-0.18-0.1-0.31s-0.05-0.37-0.06-0.74
		l-0.08-1.56c-0.03-0.61-0.25-1.02-0.66-1.22c-0.23-0.11-0.6-0.17-1.1-0.17h-2.79v4h-1.26V13.09z M97.22,17.36
		c0.58,0,1.03-0.12,1.37-0.36c0.34-0.24,0.5-0.66,0.5-1.28c0-0.66-0.23-1.12-0.7-1.36c-0.25-0.13-0.59-0.19-1.01-0.19h-3v3.19H97.22
		z"/>
	<path class="st0" d="M102.21,13.09h6.77v1.14h-5.54v2.83h5.12v1.08h-5.12v3.16h5.63v1.11h-6.86V13.09z"/>
	<path class="st0" d="M116.71,13.35c0.91,0.49,1.47,1.34,1.68,2.56h-1.25c-0.15-0.68-0.46-1.18-0.93-1.49
		c-0.47-0.31-1.06-0.47-1.77-0.47c-0.85,0-1.56,0.32-2.14,0.97s-0.87,1.61-0.87,2.89c0,1.11,0.24,2.01,0.72,2.71
		s1.25,1.04,2.33,1.04c0.83,0,1.51-0.24,2.05-0.73c0.54-0.49,0.82-1.28,0.83-2.37h-2.92v-1.05h4.09v4.99h-0.81l-0.3-1.2
		c-0.42,0.47-0.79,0.79-1.12,0.98c-0.55,0.31-1.24,0.47-2.08,0.47c-1.09,0-2.02-0.36-2.8-1.07c-0.85-0.9-1.28-2.13-1.28-3.69
		c0-1.56,0.42-2.8,1.25-3.73c0.79-0.88,1.82-1.32,3.08-1.32C115.33,12.84,116.08,13.01,116.71,13.35z"/>
	<path class="st0" d="M120.64,13.09h1.28v9.32h-1.28V13.09z"/>
	<path class="st0" d="M124.53,19.4c0.03,0.53,0.15,0.96,0.36,1.29c0.4,0.62,1.12,0.93,2.13,0.93c0.46,0,0.87-0.07,1.25-0.2
		c0.73-0.26,1.09-0.73,1.09-1.41c0-0.51-0.15-0.87-0.46-1.09c-0.31-0.21-0.8-0.4-1.46-0.55l-1.22-0.29c-0.8-0.19-1.37-0.39-1.7-0.62
		c-0.57-0.39-0.86-0.97-0.86-1.75c0-0.84,0.28-1.53,0.85-2.06c0.56-0.54,1.36-0.81,2.4-0.81c0.95,0,1.76,0.24,2.42,0.71
		s1,1.23,1,2.26h-1.19c-0.06-0.5-0.19-0.88-0.39-1.15c-0.37-0.49-1-0.73-1.88-0.73c-0.71,0-1.23,0.16-1.54,0.47
		c-0.31,0.31-0.47,0.68-0.47,1.09c0,0.46,0.18,0.79,0.55,1c0.24,0.14,0.79,0.3,1.64,0.51l1.27,0.3c0.61,0.14,1.08,0.34,1.41,0.59
		c0.57,0.44,0.86,1.07,0.86,1.9c0,1.03-0.37,1.77-1.1,2.21s-1.58,0.67-2.55,0.67c-1.13,0-2.02-0.3-2.66-0.89
		c-0.64-0.59-0.95-1.39-0.94-2.39H124.53z"/>
	<path class="st0" d="M138.89,13.09v1.11h-3.14v8.21h-1.28V14.2h-3.14v-1.11H138.89z"/>
	<path class="st0" d="M139.92,13.09h6.77v1.14h-5.54v2.83h5.12v1.08h-5.12v3.16h5.63v1.11h-6.86V13.09z"/>
	<path class="st0" d="M148.36,13.09h4.24c0.7,0,1.27,0.1,1.73,0.31c0.86,0.4,1.29,1.13,1.29,2.2c0,0.56-0.12,1.02-0.35,1.37
		s-0.55,0.64-0.97,0.86c0.36,0.15,0.64,0.34,0.82,0.58c0.18,0.24,0.29,0.63,0.31,1.17l0.04,1.25c0.01,0.36,0.04,0.62,0.09,0.79
		c0.08,0.3,0.21,0.49,0.41,0.57v0.21h-1.55c-0.04-0.08-0.08-0.18-0.1-0.31s-0.05-0.37-0.06-0.74l-0.08-1.56
		c-0.03-0.61-0.25-1.02-0.66-1.22c-0.24-0.11-0.6-0.17-1.1-0.17h-2.79v4h-1.26V13.09z M152.46,17.36c0.58,0,1.03-0.12,1.37-0.36
		c0.34-0.24,0.5-0.66,0.5-1.28c0-0.66-0.23-1.12-0.7-1.36c-0.25-0.13-0.59-0.19-1.01-0.19h-3v3.19H152.46z"/>
</g>
</svg>
