<?xml version="1.0" encoding="utf-8"?>
<!-- Generator: Adobe Illustrator 24.3.0, SVG Export Plug-In . SVG Version: 6.00 Build 0)  -->
<svg version="1.1" id="Layer_1" xmlns="http://www.w3.org/2000/svg" xmlns:xlink="http://www.w3.org/1999/xlink" x="0px" y="0px"
	 viewBox="0 0 15.18 15.18" style="enable-background:new 0 0 15.18 15.18;" xml:space="preserve">
<style type="text/css">
	.st0{fill:#272727;}
	.st1{fill:#FFFFFF;}
	.st2{clip-path:url(#SVGID_2_);fill:#3E80EF;}
	.st3{clip-path:url(#SVGID_4_);fill:#32A554;}
	.st4{clip-path:url(#SVGID_6_);fill:#F7B900;}
	.st5{clip-path:url(#SVGID_8_);fill:#E54133;}
	.st6{fill:#F8DF02;}
	.st7{fill:#381E1F;}
	.st8{clip-path:url(#SVGID_12_);fill:#F8DF02;}
	.st9{clip-path:url(#SVGID_18_);fill:#F8DF02;}
	.st10{clip-path:url(#SVGID_24_);fill:#F8DF02;}
	.st11{clip-path:url(#SVGID_30_);fill:#F8DF02;}
	.st12{fill:#8BFF00;}
	.st13{fill:#0F0F0F;}
	.st14{opacity:0.48;}
	.st15{opacity:0.65;fill:#FFFFFF;}
</style>
<g>
	<circle class="st1" cx="7.59" cy="7.59" r="7.59"/>
	<g>
		<path class="st0" d="M10.79,10.37L8,7.57l2.8-2.8c0.11-0.13,0.11-0.31,0-0.44c-0.12-0.14-0.33-0.16-0.47-0.04L7.59,7.03L4.86,4.3
			C4.72,4.18,4.51,4.2,4.39,4.34c-0.11,0.13-0.11,0.31,0,0.44l2.8,2.8l-2.8,2.79c-0.14,0.12-0.16,0.33-0.04,0.47
			c0.12,0.14,0.33,0.16,0.47,0.04c0.01-0.01,0.03-0.02,0.04-0.04l2.73-2.73l2.73,2.73c0.01,0.01,0.02,0.03,0.04,0.04
			c0.14,0.12,0.35,0.1,0.47-0.04C10.95,10.7,10.93,10.49,10.79,10.37z"/>
		<path class="st0" d="M4.61,11.22c-0.02,0-0.03,0-0.05,0c-0.16-0.01-0.3-0.09-0.41-0.21c-0.1-0.12-0.15-0.27-0.14-0.43
			c0.01-0.16,0.08-0.3,0.21-0.41l2.6-2.6L4.21,4.96C4,4.72,4,4.4,4.19,4.17C4.3,4.05,4.44,3.98,4.6,3.97C4.75,3.96,4.91,4,5.03,4.11
			l2.56,2.56l2.54-2.54c0.14-0.12,0.3-0.16,0.45-0.16c0.16,0.01,0.3,0.09,0.41,0.21c0.19,0.23,0.19,0.55,0,0.77L8.36,7.57l2.61,2.6
			c0.12,0.1,0.19,0.24,0.2,0.4c0.01,0.16-0.04,0.31-0.14,0.43c-0.1,0.12-0.25,0.19-0.41,0.21c-0.16,0.01-0.31-0.04-0.43-0.14
			l-0.06-0.06L7.59,8.48L5,11.07C4.89,11.17,4.75,11.22,4.61,11.22z M4.65,4.48c-0.02,0-0.05,0.01-0.07,0.03
			c-0.02,0.03-0.02,0.07,0,0.1l2.96,2.96l-3.02,3.04L4.6,10.7l0.23,0.18l-0.16-0.2l2.93-2.93l2.99,2.95l0.07-0.08l-0.04-0.07
			L7.63,7.57l2.98-2.98c0.01-0.01,0.01-0.06-0.01-0.09c-0.02-0.03-0.08-0.03-0.11-0.01L7.59,7.4L4.68,4.49
			C4.67,4.48,4.66,4.48,4.65,4.48z"/>
	</g>
</g>
</svg>
