<?xml version="1.0" encoding="utf-8"?>
<!-- Generator: Adobe Illustrator 24.3.0, SVG Export Plug-In . SVG Version: 6.00 Build 0)  -->
<svg version="1.1" id="Layer_1" xmlns="http://www.w3.org/2000/svg" xmlns:xlink="http://www.w3.org/1999/xlink" x="0px" y="0px"
	 viewBox="0 0 312.77 300.13" style="enable-background:new 0 0 312.77 300.13;" xml:space="preserve">
<style type="text/css">
	.st0{fill:#272727;}
	.st1{fill:#FFFFFF;}
	.st2{clip-path:url(#SVGID_2_);fill:#3E80EF;}
	.st3{clip-path:url(#SVGID_4_);fill:#32A554;}
	.st4{clip-path:url(#SVGID_6_);fill:#F7B900;}
	.st5{clip-path:url(#SVGID_8_);fill:#E54133;}
	.st6{fill:#F8DF02;}
	.st7{fill:#381E1F;}
	.st8{clip-path:url(#SVGID_12_);fill:#F8DF02;}
	.st9{clip-path:url(#SVGID_18_);fill:#F8DF02;}
	.st10{clip-path:url(#SVGID_24_);fill:#F8DF02;}
	.st11{clip-path:url(#SVGID_30_);fill:#F8DF02;}
	.st12{fill:#8BFF00;}
	.st13{fill:#0F0F0F;}
	.st14{opacity:0.48;}
	.st15{opacity:0.65;fill:#FFFFFF;}
	.st16{font-family:'Termina-Black';}
	.st17{font-size:25.9536px;}
	.st18{letter-spacing:-1;}
	.st19{font-size:31.5514px;}
	.st20{font-size:30.5336px;}
</style>
<rect class="st0" width="312.77" height="300.13"/>
<g>
	<g class="st14">
		<path class="st1" d="M73.71,223.87c0.03,0.32,0.1,0.59,0.22,0.81c0.12,0.22,0.27,0.4,0.45,0.54c0.18,0.14,0.4,0.24,0.64,0.31
			c0.24,0.06,0.5,0.09,0.77,0.09c0.32,0,0.6-0.04,0.83-0.12c0.23-0.08,0.42-0.19,0.57-0.33c0.15-0.14,0.25-0.29,0.32-0.48
			c0.07-0.18,0.11-0.37,0.11-0.57c0-0.28-0.06-0.51-0.19-0.68c-0.13-0.17-0.29-0.31-0.49-0.42c-0.2-0.11-0.44-0.2-0.7-0.27
			c-0.26-0.07-0.53-0.13-0.81-0.19s-0.55-0.14-0.81-0.23s-0.5-0.2-0.7-0.35c-0.2-0.15-0.37-0.33-0.5-0.56
			c-0.13-0.23-0.19-0.52-0.19-0.88c0-0.25,0.05-0.49,0.15-0.72c0.1-0.23,0.26-0.44,0.46-0.62c0.2-0.18,0.46-0.32,0.77-0.43
			c0.31-0.11,0.66-0.16,1.06-0.16c0.41,0,0.76,0.06,1.06,0.17c0.3,0.11,0.56,0.27,0.75,0.47c0.2,0.2,0.35,0.42,0.45,0.69
			c0.1,0.26,0.15,0.54,0.15,0.83h-0.65c0-0.27-0.05-0.51-0.15-0.71c-0.1-0.2-0.23-0.36-0.4-0.49s-0.36-0.22-0.57-0.28
			c-0.21-0.06-0.43-0.09-0.66-0.09c-0.35,0-0.64,0.05-0.88,0.15c-0.24,0.1-0.42,0.22-0.56,0.38s-0.24,0.32-0.29,0.51
			c-0.05,0.19-0.06,0.37-0.03,0.56c0.04,0.23,0.13,0.42,0.28,0.56c0.15,0.14,0.33,0.26,0.54,0.35s0.45,0.16,0.71,0.22
			c0.26,0.06,0.52,0.12,0.78,0.18s0.53,0.14,0.78,0.23s0.47,0.2,0.66,0.35s0.35,0.33,0.47,0.56c0.12,0.23,0.17,0.52,0.17,0.86
			c0,0.67-0.23,1.18-0.69,1.55c-0.46,0.37-1.11,0.55-1.94,0.55c-0.37,0-0.72-0.05-1.04-0.15s-0.6-0.24-0.83-0.44
			s-0.42-0.44-0.54-0.73s-0.19-0.63-0.19-1.02H73.71z"/>
		<path class="st1" d="M81.31,226.16c-0.33-0.01-0.65-0.07-0.93-0.18c-0.29-0.11-0.54-0.28-0.76-0.51s-0.39-0.51-0.52-0.85
			c-0.13-0.34-0.19-0.74-0.19-1.19c0-0.38,0.05-0.74,0.15-1.06c0.1-0.33,0.25-0.62,0.45-0.87s0.45-0.44,0.75-0.58
			c0.3-0.14,0.65-0.21,1.05-0.21c0.41,0,0.76,0.07,1.06,0.21c0.3,0.14,0.55,0.34,0.75,0.58c0.2,0.24,0.35,0.53,0.45,0.86
			c0.1,0.33,0.15,0.69,0.15,1.07c0,0.41-0.06,0.79-0.17,1.12c-0.11,0.33-0.27,0.62-0.48,0.86c-0.21,0.24-0.46,0.42-0.76,0.55
			C82,226.1,81.68,226.16,81.31,226.16z M83.07,223.43c0-0.31-0.03-0.59-0.1-0.86c-0.07-0.27-0.17-0.5-0.31-0.69
			c-0.14-0.2-0.32-0.35-0.54-0.46c-0.22-0.11-0.49-0.17-0.81-0.17c-0.31,0-0.58,0.06-0.8,0.18c-0.22,0.12-0.41,0.29-0.54,0.49
			c-0.14,0.2-0.24,0.44-0.31,0.7c-0.07,0.26-0.1,0.53-0.1,0.81c0,0.32,0.04,0.61,0.11,0.88s0.19,0.5,0.34,0.7
			c0.15,0.19,0.33,0.34,0.55,0.45c0.22,0.11,0.47,0.16,0.76,0.16c0.31,0,0.58-0.06,0.81-0.19c0.22-0.12,0.41-0.29,0.54-0.5
			c0.14-0.21,0.24-0.44,0.31-0.7C83.04,223.98,83.07,223.71,83.07,223.43z"/>
		<path class="st1" d="M88.28,222.47c-0.11-0.39-0.29-0.69-0.55-0.91c-0.26-0.22-0.59-0.32-0.99-0.32c-0.31,0-0.57,0.06-0.79,0.19
			c-0.22,0.13-0.4,0.29-0.54,0.5s-0.24,0.45-0.31,0.71c-0.07,0.26-0.1,0.53-0.1,0.79c0,0.27,0.03,0.54,0.1,0.8
			c0.06,0.26,0.17,0.49,0.3,0.7c0.14,0.21,0.32,0.37,0.54,0.5c0.22,0.12,0.49,0.19,0.8,0.19c0.45,0,0.8-0.12,1.07-0.37
			s0.44-0.59,0.52-1.02h0.64c-0.05,0.29-0.14,0.55-0.25,0.79c-0.12,0.24-0.27,0.44-0.45,0.61c-0.18,0.17-0.4,0.3-0.65,0.4
			c-0.25,0.09-0.54,0.14-0.87,0.14c-0.41,0-0.77-0.07-1.07-0.21c-0.3-0.14-0.55-0.33-0.74-0.58c-0.19-0.24-0.34-0.53-0.43-0.86
			c-0.09-0.33-0.14-0.69-0.14-1.07c0-0.36,0.05-0.71,0.15-1.04c0.1-0.33,0.25-0.62,0.46-0.88c0.2-0.25,0.45-0.45,0.75-0.6
			c0.3-0.15,0.64-0.22,1.02-0.22c0.6,0,1.08,0.14,1.46,0.43c0.37,0.29,0.6,0.73,0.69,1.34H88.28z"/>
		<path class="st1" d="M90.03,219.71v-0.89h0.66v0.89H90.03z M90.06,226.02v-5.18h0.6v5.18H90.06z"/>
		<path class="st1" d="M94.37,223c0.11-0.01,0.25-0.03,0.4-0.06c0.16-0.03,0.29-0.06,0.39-0.11c0.1-0.05,0.16-0.12,0.19-0.23
			c0.02-0.11,0.03-0.21,0.03-0.31c0-0.31-0.1-0.56-0.29-0.75s-0.53-0.29-1-0.29c-0.21,0-0.4,0.02-0.57,0.05s-0.33,0.1-0.46,0.19
			c-0.13,0.09-0.24,0.21-0.32,0.36c-0.08,0.15-0.14,0.34-0.17,0.56h-0.61c0.02-0.31,0.09-0.57,0.21-0.79
			c0.12-0.22,0.27-0.39,0.46-0.53s0.41-0.24,0.66-0.3c0.25-0.06,0.51-0.09,0.79-0.09c0.26,0,0.5,0.03,0.73,0.08s0.43,0.15,0.6,0.27
			c0.17,0.12,0.3,0.29,0.4,0.49c0.1,0.21,0.15,0.46,0.15,0.76v2.82c0,0.23,0.04,0.38,0.12,0.45s0.25,0.05,0.5-0.05V226
			c-0.05,0.01-0.11,0.03-0.21,0.06c-0.09,0.03-0.18,0.04-0.26,0.04c-0.09,0-0.18-0.01-0.27-0.03c-0.1-0.01-0.18-0.04-0.24-0.09
			c-0.06-0.05-0.11-0.11-0.15-0.18c-0.04-0.07-0.06-0.15-0.07-0.23c-0.01-0.08-0.02-0.17-0.02-0.27c-0.25,0.28-0.54,0.49-0.87,0.64
			s-0.68,0.22-1.06,0.22c-0.23,0-0.44-0.03-0.65-0.09c-0.21-0.06-0.4-0.15-0.56-0.28s-0.29-0.28-0.38-0.46
			c-0.09-0.18-0.14-0.4-0.14-0.66c0-0.88,0.6-1.4,1.81-1.56L94.37,223z M95.38,223.3c-0.25,0.11-0.51,0.18-0.77,0.21
			c-0.26,0.03-0.52,0.06-0.78,0.08c-0.46,0.03-0.82,0.14-1.08,0.31c-0.26,0.17-0.38,0.44-0.38,0.79c0,0.16,0.03,0.3,0.09,0.42
			s0.15,0.21,0.25,0.29c0.1,0.08,0.22,0.13,0.36,0.17c0.14,0.04,0.27,0.06,0.42,0.06c0.24,0,0.47-0.03,0.7-0.09
			c0.23-0.06,0.43-0.15,0.6-0.27c0.18-0.12,0.32-0.28,0.43-0.47c0.11-0.19,0.16-0.42,0.16-0.68V223.3z"/>
		<path class="st1" d="M97.44,226.02v-7.2h0.6v7.2H97.44z"/>
		<path class="st1" d="M102.04,226.02v-7.2h0.68v6.62h3.86v0.58H102.04z"/>
		<path class="st1" d="M109.37,226.16c-0.33-0.01-0.65-0.07-0.93-0.18c-0.29-0.11-0.54-0.28-0.76-0.51s-0.39-0.51-0.52-0.85
			c-0.13-0.34-0.19-0.74-0.19-1.19c0-0.38,0.05-0.74,0.15-1.06c0.1-0.33,0.25-0.62,0.45-0.87s0.45-0.44,0.75-0.58
			c0.3-0.14,0.65-0.21,1.05-0.21c0.41,0,0.76,0.07,1.06,0.21c0.3,0.14,0.55,0.34,0.75,0.58c0.2,0.24,0.35,0.53,0.45,0.86
			c0.1,0.33,0.15,0.69,0.15,1.07c0,0.41-0.06,0.79-0.17,1.12c-0.11,0.33-0.27,0.62-0.48,0.86c-0.21,0.24-0.46,0.42-0.76,0.55
			C110.06,226.1,109.73,226.16,109.37,226.16z M111.13,223.43c0-0.31-0.03-0.59-0.1-0.86c-0.07-0.27-0.17-0.5-0.31-0.69
			c-0.14-0.2-0.32-0.35-0.54-0.46c-0.22-0.11-0.49-0.17-0.81-0.17c-0.31,0-0.58,0.06-0.8,0.18c-0.22,0.12-0.41,0.29-0.54,0.49
			c-0.14,0.2-0.24,0.44-0.31,0.7c-0.07,0.26-0.1,0.53-0.1,0.81c0,0.32,0.04,0.61,0.11,0.88s0.19,0.5,0.34,0.7
			c0.15,0.19,0.33,0.34,0.55,0.45c0.22,0.11,0.47,0.16,0.76,0.16c0.31,0,0.58-0.06,0.81-0.19c0.22-0.12,0.41-0.29,0.54-0.5
			c0.14-0.21,0.24-0.44,0.31-0.7C111.1,223.98,111.13,223.71,111.13,223.43z"/>
		<path class="st1" d="M116.67,220.84h0.6v4.68c0,0.35-0.03,0.68-0.1,1c-0.07,0.32-0.19,0.59-0.38,0.83
			c-0.18,0.24-0.43,0.43-0.74,0.57c-0.31,0.14-0.72,0.22-1.21,0.22c-0.38,0-0.71-0.05-0.98-0.15c-0.27-0.1-0.5-0.22-0.67-0.37
			c-0.17-0.15-0.31-0.31-0.4-0.48c-0.09-0.18-0.14-0.34-0.15-0.5h0.64c0.05,0.19,0.12,0.35,0.22,0.48s0.22,0.22,0.35,0.29
			s0.29,0.12,0.46,0.15c0.17,0.03,0.34,0.04,0.52,0.04c0.41,0,0.73-0.07,0.98-0.21c0.25-0.14,0.43-0.32,0.56-0.55
			c0.13-0.23,0.21-0.48,0.24-0.77c0.04-0.29,0.05-0.58,0.05-0.88c-0.19,0.32-0.46,0.56-0.8,0.73c-0.34,0.16-0.69,0.25-1.05,0.25
			c-0.39,0-0.74-0.08-1.02-0.23c-0.29-0.15-0.53-0.35-0.72-0.6s-0.33-0.54-0.42-0.88c-0.09-0.33-0.14-0.68-0.14-1.04
			c0-0.38,0.04-0.74,0.13-1.07s0.23-0.62,0.42-0.87c0.19-0.24,0.43-0.44,0.73-0.57c0.29-0.14,0.65-0.21,1.07-0.21
			c0.17,0,0.34,0.02,0.51,0.07c0.17,0.05,0.34,0.11,0.5,0.2c0.16,0.09,0.31,0.2,0.45,0.33c0.14,0.13,0.25,0.28,0.33,0.45h0.02
			V220.84z M116.67,223.45c0-0.31-0.04-0.6-0.12-0.88s-0.19-0.5-0.33-0.7c-0.15-0.2-0.33-0.35-0.55-0.46
			c-0.22-0.11-0.47-0.17-0.75-0.17c-0.25,0-0.49,0.04-0.7,0.13s-0.4,0.22-0.56,0.4s-0.29,0.38-0.38,0.63s-0.13,0.54-0.13,0.87
			c-0.01,0.33,0.01,0.63,0.08,0.92c0.07,0.28,0.17,0.53,0.32,0.75c0.15,0.21,0.33,0.38,0.56,0.5c0.23,0.12,0.5,0.19,0.81,0.19
			c0.27,0,0.52-0.06,0.73-0.18c0.22-0.12,0.4-0.27,0.55-0.47s0.27-0.43,0.35-0.69S116.67,223.74,116.67,223.45z"/>
		<path class="st1" d="M118.64,219.71v-0.89h0.66v0.89H118.64z M118.67,226.02v-5.18h0.6v5.18H118.67z"/>
		<path class="st1" d="M121.2,226.02h-0.6v-5.18h0.6v0.72c0.24-0.25,0.49-0.46,0.75-0.62s0.56-0.24,0.93-0.24
			c0.32,0,0.62,0.05,0.89,0.17c0.27,0.11,0.5,0.3,0.69,0.57c0.13,0.19,0.2,0.38,0.23,0.58s0.04,0.4,0.04,0.61v3.39h-0.6v-3.38
			c0-0.47-0.1-0.82-0.31-1.05c-0.21-0.23-0.55-0.35-1.03-0.35c-0.19,0-0.36,0.03-0.51,0.08s-0.29,0.13-0.42,0.22
			c-0.12,0.09-0.23,0.2-0.31,0.32s-0.15,0.25-0.2,0.38c-0.06,0.17-0.1,0.33-0.11,0.48c-0.01,0.15-0.02,0.32-0.02,0.5V226.02z"/>
	</g>
</g>
<g>
	<g class="st14">
		<path class="st1" d="M187.72,220.91c-0.14-0.61-0.4-1.05-0.78-1.31c-0.38-0.26-0.88-0.39-1.49-0.39c-0.43,0-0.81,0.09-1.12,0.26
			c-0.31,0.17-0.57,0.41-0.77,0.7c-0.2,0.29-0.35,0.63-0.45,1.02c-0.1,0.38-0.15,0.79-0.15,1.21c0,0.4,0.04,0.79,0.12,1.18
			c0.08,0.39,0.22,0.73,0.42,1.04c0.19,0.3,0.45,0.55,0.78,0.73s0.74,0.28,1.23,0.28c0.31,0,0.59-0.05,0.84-0.15
			s0.48-0.24,0.67-0.42c0.19-0.18,0.35-0.38,0.48-0.62c0.13-0.24,0.23-0.5,0.3-0.79h0.71c-0.08,0.35-0.2,0.68-0.35,0.99
			c-0.15,0.31-0.35,0.58-0.6,0.81s-0.55,0.42-0.91,0.55c-0.36,0.14-0.77,0.21-1.25,0.21c-0.55,0-1.03-0.1-1.42-0.31
			c-0.39-0.2-0.72-0.48-0.97-0.82s-0.43-0.75-0.54-1.21s-0.17-0.94-0.17-1.46c0-0.69,0.08-1.27,0.25-1.75s0.41-0.87,0.71-1.17
			c0.3-0.3,0.65-0.52,1.06-0.66s0.85-0.21,1.33-0.21c0.37,0,0.71,0.05,1.02,0.15c0.32,0.1,0.6,0.24,0.84,0.44
			c0.24,0.19,0.44,0.43,0.6,0.71c0.16,0.28,0.27,0.61,0.33,0.99H187.72z"/>
		<path class="st1" d="M190.17,226.02h-0.6v-5.18h0.6v0.97h0.02c0.17-0.41,0.38-0.7,0.65-0.87c0.26-0.16,0.61-0.24,1.04-0.24v0.65
			c-0.34-0.01-0.62,0.05-0.84,0.16c-0.22,0.11-0.4,0.27-0.53,0.46c-0.13,0.19-0.22,0.42-0.27,0.68c-0.05,0.26-0.07,0.54-0.07,0.83
			V226.02z"/>
		<path class="st1" d="M193.04,223.57c0,0.28,0.04,0.55,0.11,0.8c0.07,0.25,0.18,0.47,0.32,0.65c0.14,0.18,0.33,0.33,0.54,0.44
			c0.22,0.11,0.47,0.17,0.76,0.17c0.39,0,0.73-0.1,1.01-0.31c0.28-0.21,0.47-0.5,0.56-0.88h0.67c-0.07,0.25-0.17,0.47-0.29,0.69
			c-0.12,0.21-0.27,0.39-0.45,0.55c-0.18,0.16-0.39,0.28-0.64,0.36c-0.25,0.09-0.53,0.13-0.86,0.13c-0.41,0-0.77-0.07-1.07-0.21
			c-0.3-0.14-0.55-0.33-0.74-0.58c-0.19-0.24-0.34-0.53-0.43-0.86s-0.14-0.69-0.14-1.06c0-0.38,0.05-0.74,0.17-1.07
			c0.11-0.33,0.27-0.62,0.47-0.88c0.2-0.25,0.45-0.45,0.75-0.59c0.29-0.14,0.63-0.21,1-0.21c0.71,0,1.27,0.24,1.68,0.73
			c0.41,0.49,0.61,1.2,0.6,2.13H193.04z M196.42,223.07c0-0.25-0.04-0.49-0.1-0.71c-0.07-0.22-0.17-0.42-0.31-0.58
			c-0.14-0.16-0.31-0.29-0.52-0.39s-0.44-0.15-0.71-0.15s-0.5,0.05-0.71,0.15c-0.2,0.1-0.38,0.23-0.52,0.4
			c-0.14,0.17-0.26,0.36-0.35,0.58c-0.09,0.22-0.14,0.45-0.17,0.7H196.42z"/>
		<path class="st1" d="M200.41,223c0.11-0.01,0.25-0.03,0.4-0.06c0.16-0.03,0.29-0.06,0.39-0.11c0.1-0.05,0.16-0.12,0.19-0.23
			c0.02-0.11,0.03-0.21,0.03-0.31c0-0.31-0.1-0.56-0.29-0.75s-0.53-0.29-1-0.29c-0.21,0-0.4,0.02-0.57,0.05s-0.33,0.1-0.46,0.19
			c-0.13,0.09-0.24,0.21-0.32,0.36c-0.08,0.15-0.14,0.34-0.17,0.56h-0.61c0.02-0.31,0.09-0.57,0.21-0.79
			c0.12-0.22,0.27-0.39,0.46-0.53s0.41-0.24,0.66-0.3c0.25-0.06,0.51-0.09,0.79-0.09c0.26,0,0.5,0.03,0.73,0.08s0.43,0.15,0.6,0.27
			c0.17,0.12,0.3,0.29,0.4,0.49c0.1,0.21,0.15,0.46,0.15,0.76v2.82c0,0.23,0.04,0.38,0.12,0.45s0.25,0.05,0.5-0.05V226
			c-0.05,0.01-0.11,0.03-0.21,0.06c-0.09,0.03-0.18,0.04-0.26,0.04c-0.09,0-0.18-0.01-0.27-0.03c-0.1-0.01-0.18-0.04-0.24-0.09
			c-0.06-0.05-0.11-0.11-0.15-0.18c-0.04-0.07-0.06-0.15-0.07-0.23c-0.01-0.08-0.02-0.17-0.02-0.27c-0.25,0.28-0.54,0.49-0.87,0.64
			s-0.68,0.22-1.06,0.22c-0.23,0-0.44-0.03-0.65-0.09c-0.21-0.06-0.4-0.15-0.56-0.28s-0.29-0.28-0.38-0.46
			c-0.09-0.18-0.14-0.4-0.14-0.66c0-0.88,0.6-1.4,1.81-1.56L200.41,223z M201.42,223.3c-0.25,0.11-0.51,0.18-0.77,0.21
			c-0.26,0.03-0.52,0.06-0.78,0.08c-0.46,0.03-0.82,0.14-1.08,0.31c-0.26,0.17-0.38,0.44-0.38,0.79c0,0.16,0.03,0.3,0.09,0.42
			s0.15,0.21,0.25,0.29c0.1,0.08,0.22,0.13,0.36,0.17c0.14,0.04,0.27,0.06,0.42,0.06c0.24,0,0.47-0.03,0.7-0.09
			c0.23-0.06,0.43-0.15,0.6-0.27c0.18-0.12,0.32-0.28,0.43-0.47c0.11-0.19,0.16-0.42,0.16-0.68V223.3z"/>
		<path class="st1" d="M205.21,226.04c-0.07,0.01-0.17,0.04-0.29,0.07s-0.25,0.05-0.4,0.05c-0.3,0-0.53-0.08-0.69-0.23
			s-0.23-0.42-0.23-0.81v-3.79h-0.73v-0.5h0.73v-1.44h0.6v1.44h0.97v0.5h-0.97v3.55c0,0.13,0,0.24,0.01,0.33
			c0.01,0.09,0.03,0.17,0.06,0.23c0.03,0.06,0.08,0.1,0.15,0.13c0.07,0.03,0.17,0.04,0.29,0.04c0.08,0,0.16-0.01,0.25-0.02
			s0.17-0.03,0.25-0.05V226.04z"/>
		<path class="st1" d="M207.98,226.02l2.83-7.2h0.77l2.76,7.2h-0.7l-0.83-2.26h-3.28l-0.85,2.26H207.98z M209.76,223.18h2.82
			l-1.41-3.78L209.76,223.18z"/>
		<path class="st1" d="M218.69,222.47c-0.11-0.39-0.29-0.69-0.55-0.91c-0.26-0.22-0.59-0.32-0.99-0.32c-0.31,0-0.57,0.06-0.79,0.19
			c-0.22,0.13-0.4,0.29-0.54,0.5s-0.24,0.45-0.31,0.71c-0.07,0.26-0.1,0.53-0.1,0.79c0,0.27,0.03,0.54,0.1,0.8
			c0.06,0.26,0.17,0.49,0.3,0.7c0.14,0.21,0.32,0.37,0.54,0.5c0.22,0.12,0.49,0.19,0.8,0.19c0.45,0,0.8-0.12,1.07-0.37
			s0.44-0.59,0.52-1.02h0.64c-0.05,0.29-0.14,0.55-0.25,0.79c-0.12,0.24-0.27,0.44-0.45,0.61c-0.18,0.17-0.4,0.3-0.65,0.4
			c-0.25,0.09-0.54,0.14-0.87,0.14c-0.41,0-0.77-0.07-1.07-0.21c-0.3-0.14-0.55-0.33-0.74-0.58c-0.19-0.24-0.34-0.53-0.43-0.86
			c-0.09-0.33-0.14-0.69-0.14-1.07c0-0.36,0.05-0.71,0.15-1.04c0.1-0.33,0.25-0.62,0.46-0.88c0.2-0.25,0.45-0.45,0.75-0.6
			c0.3-0.15,0.64-0.22,1.02-0.22c0.6,0,1.08,0.14,1.46,0.43c0.37,0.29,0.6,0.73,0.69,1.34H218.69z"/>
		<path class="st1" d="M224.05,222.47c-0.11-0.39-0.29-0.69-0.55-0.91c-0.26-0.22-0.59-0.32-0.99-0.32c-0.31,0-0.57,0.06-0.79,0.19
			c-0.22,0.13-0.4,0.29-0.54,0.5s-0.24,0.45-0.31,0.71c-0.07,0.26-0.1,0.53-0.1,0.79c0,0.27,0.03,0.54,0.1,0.8
			c0.06,0.26,0.17,0.49,0.3,0.7c0.14,0.21,0.32,0.37,0.54,0.5c0.22,0.12,0.49,0.19,0.8,0.19c0.45,0,0.8-0.12,1.07-0.37
			s0.44-0.59,0.52-1.02h0.64c-0.05,0.29-0.14,0.55-0.25,0.79c-0.12,0.24-0.27,0.44-0.45,0.61c-0.18,0.17-0.4,0.3-0.65,0.4
			c-0.25,0.09-0.54,0.14-0.87,0.14c-0.41,0-0.77-0.07-1.07-0.21c-0.3-0.14-0.55-0.33-0.74-0.58c-0.19-0.24-0.34-0.53-0.43-0.86
			c-0.09-0.33-0.14-0.69-0.14-1.07c0-0.36,0.05-0.71,0.15-1.04c0.1-0.33,0.25-0.62,0.46-0.88c0.2-0.25,0.45-0.45,0.75-0.6
			c0.3-0.15,0.64-0.22,1.02-0.22c0.6,0,1.08,0.14,1.46,0.43c0.37,0.29,0.6,0.73,0.69,1.34H224.05z"/>
		<path class="st1" d="M227.8,226.16c-0.33-0.01-0.65-0.07-0.93-0.18c-0.29-0.11-0.54-0.28-0.76-0.51s-0.39-0.51-0.52-0.85
			c-0.13-0.34-0.19-0.74-0.19-1.19c0-0.38,0.05-0.74,0.15-1.06c0.1-0.33,0.25-0.62,0.45-0.87s0.45-0.44,0.75-0.58
			c0.3-0.14,0.65-0.21,1.05-0.21c0.41,0,0.76,0.07,1.06,0.21c0.3,0.14,0.55,0.34,0.75,0.58c0.2,0.24,0.35,0.53,0.45,0.86
			c0.1,0.33,0.15,0.69,0.15,1.07c0,0.41-0.06,0.79-0.17,1.12c-0.11,0.33-0.27,0.62-0.48,0.86c-0.21,0.24-0.46,0.42-0.76,0.55
			C228.49,226.1,228.16,226.16,227.8,226.16z M229.56,223.43c0-0.31-0.03-0.59-0.1-0.86c-0.07-0.27-0.17-0.5-0.31-0.69
			c-0.14-0.2-0.32-0.35-0.54-0.46c-0.22-0.11-0.49-0.17-0.81-0.17c-0.31,0-0.58,0.06-0.8,0.18c-0.22,0.12-0.41,0.29-0.54,0.49
			c-0.14,0.2-0.24,0.44-0.31,0.7c-0.07,0.26-0.1,0.53-0.1,0.81c0,0.32,0.04,0.61,0.11,0.88s0.19,0.5,0.34,0.7
			c0.15,0.19,0.33,0.34,0.55,0.45c0.22,0.11,0.47,0.16,0.76,0.16c0.31,0,0.58-0.06,0.81-0.19c0.22-0.12,0.41-0.29,0.54-0.5
			c0.14-0.21,0.24-0.44,0.31-0.7C229.52,223.98,229.56,223.71,229.56,223.43z"/>
		<path class="st1" d="M234.61,220.84h0.6v5.18h-0.6v-0.72c-0.08,0.09-0.17,0.19-0.27,0.29c-0.1,0.1-0.21,0.19-0.34,0.28
			c-0.13,0.08-0.28,0.15-0.46,0.21c-0.17,0.06-0.37,0.08-0.6,0.08c-0.35,0-0.64-0.05-0.87-0.15s-0.42-0.23-0.56-0.41
			c-0.14-0.17-0.25-0.38-0.31-0.6s-0.09-0.48-0.09-0.75v-3.41h0.6v3.4c0,0.45,0.1,0.79,0.31,1.02s0.55,0.35,1.02,0.35
			c0.25,0,0.47-0.05,0.67-0.15s0.36-0.23,0.5-0.41c0.13-0.17,0.24-0.38,0.31-0.62c0.07-0.24,0.11-0.5,0.11-0.79V220.84z"/>
		<path class="st1" d="M237.06,226.02h-0.6v-5.18h0.6v0.72c0.24-0.25,0.49-0.46,0.75-0.62s0.56-0.24,0.93-0.24
			c0.32,0,0.62,0.05,0.89,0.17c0.27,0.11,0.5,0.3,0.69,0.57c0.13,0.19,0.2,0.38,0.23,0.58s0.04,0.4,0.04,0.61v3.39h-0.6v-3.38
			c0-0.47-0.1-0.82-0.31-1.05c-0.21-0.23-0.55-0.35-1.03-0.35c-0.19,0-0.36,0.03-0.51,0.08s-0.29,0.13-0.42,0.22
			c-0.12,0.09-0.23,0.2-0.31,0.32s-0.15,0.25-0.2,0.38c-0.06,0.17-0.1,0.33-0.11,0.48c-0.01,0.15-0.02,0.32-0.02,0.5V226.02z"/>
		<path class="st1" d="M243.64,226.04c-0.07,0.01-0.17,0.04-0.29,0.07s-0.25,0.05-0.4,0.05c-0.3,0-0.53-0.08-0.69-0.23
			s-0.23-0.42-0.23-0.81v-3.79h-0.73v-0.5h0.73v-1.44h0.6v1.44h0.97v0.5h-0.97v3.55c0,0.13,0,0.24,0.01,0.33
			c0.01,0.09,0.03,0.17,0.06,0.23c0.03,0.06,0.08,0.1,0.15,0.13c0.07,0.03,0.17,0.04,0.29,0.04c0.08,0,0.16-0.01,0.25-0.02
			s0.17-0.03,0.25-0.05V226.04z"/>
	</g>
</g>
<rect x="159.01" y="223.58" class="st15" width="0.25" height="49.56"/>
<text transform="matrix(1 0 0 1 122.0719 50.1417)"><tspan x="0" y="0" class="st12 st16 st17 st18">T</tspan><tspan x="20.53" y="0" class="st12 st16 st19 st18">a</tspan><tspan x="44.04" y="0" class="st12 st16 st20 st18">w</tspan></text>
</svg>
