<?xml version="1.0" encoding="utf-8"?>
<!-- Generator: Adobe Illustrator 24.3.0, SVG Export Plug-In . SVG Version: 6.00 Build 0)  -->
<svg version="1.1" id="Layer_1" xmlns="http://www.w3.org/2000/svg" xmlns:xlink="http://www.w3.org/1999/xlink" x="0px" y="0px"
	 viewBox="0 0 178.72 23.32" style="enable-background:new 0 0 178.72 23.32;" xml:space="preserve">
<style type="text/css">
	.st0{fill:#272727;}
	.st1{fill:#737373;stroke:#A3A3A3;stroke-width:0.25;stroke-miterlimit:10;}
	.st2{fill:#FFFFFF;}
	.st3{fill:#1B1B1B;stroke:#504F4F;stroke-width:0.25;stroke-miterlimit:10;}
	.st4{opacity:0.45;}
	.st5{fill:#706E6E;}
	.st6{fill:#8BFF00;}
</style>
<path class="st6" d="M167.06,23.32H11.66C5.22,23.32,0,18.1,0,11.66v0C0,5.22,5.22,0,11.66,0h155.4c6.44,0,11.66,5.22,11.66,11.66v0
	C178.72,18.1,173.5,23.32,167.06,23.32z"/>
<g>
	<path d="M70.57,8.26h1.41v5.53h3.36v1.21h-4.77V8.26z"/>
	<path d="M81.29,14.39c-0.51,0.52-1.25,0.79-2.21,0.79s-1.7-0.26-2.21-0.79c-0.68-0.64-1.02-1.57-1.02-2.78
		c0-1.23,0.34-2.16,1.02-2.78c0.51-0.52,1.25-0.79,2.21-0.79s1.7,0.26,2.21,0.79c0.68,0.62,1.02,1.54,1.02,2.78
		C82.31,12.82,81.97,13.75,81.29,14.39z M80.41,13.37c0.33-0.41,0.49-1,0.49-1.75c0-0.76-0.16-1.34-0.49-1.75
		c-0.33-0.41-0.77-0.62-1.33-0.62s-1,0.21-1.33,0.62c-0.33,0.41-0.5,1-0.5,1.75s0.17,1.34,0.5,1.75c0.33,0.41,0.78,0.62,1.33,0.62
		S80.08,13.78,80.41,13.37z"/>
	<path d="M87.73,10.36c-0.11-0.46-0.37-0.78-0.78-0.96c-0.23-0.1-0.49-0.15-0.77-0.15c-0.54,0-0.99,0.2-1.34,0.61
		s-0.52,1.02-0.52,1.85c0,0.83,0.19,1.41,0.57,1.76s0.81,0.52,1.29,0.52c0.47,0,0.86-0.14,1.16-0.41c0.3-0.27,0.49-0.63,0.56-1.07
		h-1.56v-1.12h2.81v3.62H88.2l-0.14-0.84c-0.27,0.32-0.51,0.54-0.73,0.67c-0.37,0.23-0.83,0.34-1.37,0.34
		c-0.89,0-1.62-0.31-2.19-0.93c-0.59-0.62-0.89-1.47-0.89-2.55c0-1.09,0.3-1.96,0.9-2.62c0.6-0.66,1.39-0.99,2.38-0.99
		c0.86,0,1.54,0.22,2.06,0.65s0.82,0.98,0.89,1.62H87.73z"/>
	<path d="M95.48,14.39c-0.51,0.52-1.25,0.79-2.21,0.79s-1.7-0.26-2.21-0.79c-0.68-0.64-1.02-1.57-1.02-2.78
		c0-1.23,0.34-2.16,1.02-2.78c0.51-0.52,1.25-0.79,2.21-0.79s1.7,0.26,2.21,0.79c0.68,0.62,1.02,1.54,1.02,2.78
		C96.5,12.82,96.16,13.75,95.48,14.39z M94.6,13.37c0.33-0.41,0.49-1,0.49-1.75c0-0.76-0.16-1.34-0.49-1.75
		c-0.33-0.41-0.77-0.62-1.33-0.62s-1,0.21-1.33,0.62c-0.33,0.41-0.5,1-0.5,1.75s0.17,1.34,0.5,1.75c0.33,0.41,0.78,0.62,1.33,0.62
		S94.27,13.78,94.6,13.37z"/>
	<path d="M97.39,8.26h1.43v4.14c0,0.46,0.05,0.8,0.16,1.01c0.17,0.38,0.54,0.57,1.11,0.57c0.57,0,0.94-0.19,1.11-0.57
		c0.11-0.21,0.16-0.55,0.16-1.01V8.26h1.43v4.14c0,0.72-0.11,1.27-0.33,1.67c-0.41,0.73-1.2,1.1-2.37,1.1s-1.96-0.37-2.37-1.1
		c-0.22-0.4-0.33-0.96-0.33-1.67V8.26z"/>
	<path d="M108.85,8.26v1.19h-2.02v5.54h-1.42V9.45h-2.03V8.26H108.85z"/>
</g>
</svg>
