<?xml version="1.0" encoding="utf-8"?>
<!-- Generator: Adobe Illustrator 24.3.0, SVG Export Plug-In . SVG Version: 6.00 Build 0)  -->
<svg version="1.1" id="Layer_1" xmlns="http://www.w3.org/2000/svg" xmlns:xlink="http://www.w3.org/1999/xlink" x="0px" y="0px"
	 viewBox="0 0 41.8 41.72" style="enable-background:new 0 0 41.8 41.72;" xml:space="preserve">
<style type="text/css">
	.st0{fill:#272727;}
	.st1{fill:#737373;stroke:#A3A3A3;stroke-width:0.25;stroke-miterlimit:10;}
	.st2{fill:#FFFFFF;}
	.st3{fill:#1B1B1B;stroke:#504F4F;stroke-width:0.25;stroke-miterlimit:10;}
	.st4{opacity:0.45;}
	.st5{fill:#706E6E;}
	.st6{fill:#8BFF00;}
</style>
<path class="st2" d="M23.53,0.17C17.99-0.54,12.51,0.96,8.1,4.38C-1.02,11.43-2.69,24.59,4.37,33.7c1.08,1.39,2.33,2.65,3.73,3.73
	c3.61,2.77,8.09,4.29,12.64,4.29c0.05,0,0.11,0,0.16,0h1.78c3.99-0.33,7.81-1.81,11.01-4.29c4.41-3.42,7.23-8.35,7.94-13.89
	c0.7-5.54-0.79-11.02-4.21-15.43C34,3.7,29.07,0.88,23.53,0.17z M30.95,37.54c-0.37,0.24-0.75,0.48-1.13,0.67l-0.72,0.32
	c-2.6,1.17-5.39,1.76-8.18,1.76s-5.58-0.59-8.19-1.76l-0.66-0.28c-0.37-0.18-0.7-0.39-1.04-0.6l-1.73-1.1l0.05-0.32
	c0.48-3.09,2.13-5.81,4.66-7.66c2.52-1.85,5.62-2.6,8.71-2.12c5.06,0.78,8.99,4.71,9.78,9.78l0.05,0.32L30.95,37.54z M15.39,19.36
	c-0.01-1.47,0.56-2.86,1.6-3.9c1.04-1.05,2.42-1.63,3.89-1.63c0.01,0,0.02,0,0.03,0c1.46,0,2.84,0.57,3.88,1.59
	c1.05,1.04,1.63,2.42,1.63,3.89c0.01,3.04-2.45,5.52-5.49,5.54C17.87,24.84,15.41,22.39,15.39,19.36z M34.4,34.93l-0.61,0.59
	l-0.21-0.82c-1.07-4.24-4.18-7.63-8.3-9.07l-0.86-0.3l0.72-0.56c3.02-2.33,3.58-6.69,1.24-9.71c-2.34-3.02-6.69-3.58-9.71-1.24
	c-3.02,2.34-3.58,6.69-1.24,9.71c0.36,0.47,0.78,0.88,1.24,1.24l0.72,0.56l-0.86,0.3c-4.13,1.44-7.23,4.83-8.3,9.07l-0.21,0.82
	L7.4,34.93c-3.75-3.61-5.87-8.46-5.97-13.67c-0.1-5.2,1.83-10.13,5.44-13.88c3.65-3.79,8.76-5.97,14.03-5.98
	c10.75,0.01,19.48,8.75,19.48,19.5C40.38,26.17,38.2,31.29,34.4,34.93z"/>
</svg>
