<?xml version="1.0" encoding="utf-8"?>
<!-- Generator: Adobe Illustrator 24.3.0, SVG Export Plug-In . SVG Version: 6.00 Build 0)  -->
<svg version="1.1" id="Layer_1" xmlns="http://www.w3.org/2000/svg" xmlns:xlink="http://www.w3.org/1999/xlink" x="0px" y="0px"
	 viewBox="0 0 26.13 26.13" style="enable-background:new 0 0 26.13 26.13;" xml:space="preserve">
<style type="text/css">
	.st0{fill:#272727;}
	.st1{fill:#FFFFFF;}
	.st2{clip-path:url(#SVGID_2_);fill:#3E80EF;}
	.st3{clip-path:url(#SVGID_4_);fill:#32A554;}
	.st4{clip-path:url(#SVGID_6_);fill:#F7B900;}
	.st5{clip-path:url(#SVGID_8_);fill:#E54133;}
	.st6{fill:#F8DF02;}
	.st7{fill:#381E1F;}
	.st8{clip-path:url(#SVGID_12_);fill:#F8DF02;}
	.st9{clip-path:url(#SVGID_18_);fill:#F8DF02;}
	.st10{clip-path:url(#SVGID_24_);fill:#F8DF02;}
	.st11{clip-path:url(#SVGID_30_);fill:#F8DF02;}
	.st12{fill:#8BFF00;}
	.st13{fill:#0F0F0F;}
	.st14{opacity:0.48;}
	.st15{opacity:0.65;fill:#FFFFFF;}
</style>
<g>
	<circle class="st6" cx="13.07" cy="13.07" r="13.07"/>
	<g>
		<path class="st7" d="M13.06,4.76c-5.27,0-9.54,3.38-9.54,7.54c0,2.71,1.81,5.09,4.52,6.41c-0.2,0.74-0.72,2.7-0.83,3.12
			c-0.13,0.52,0.19,0.51,0.4,0.37c0.16-0.11,2.61-1.77,3.67-2.49c0.57,0.09,1.17,0.13,1.77,0.13c5.27,0,9.54-3.38,9.54-7.54
			C22.6,8.14,18.33,4.76,13.06,4.76"/>
		<g>
			<g>
				<defs>
					<path id="SVGID_9_" d="M6.26,9.9c-0.58,0-0.58,1.02,0,1.02h0.99c0,0,0.01,2.76,0,3.4c0,0.46,1.03,0.49,1.03,0.02l0-3.33
						c0,0,0.33-0.07,0.99-0.07c0.62,0,0.62-1.05,0-1.05H6.26z"/>
				</defs>
				<clipPath id="SVGID_2_">
					<use xlink:href="#SVGID_9_"  style="overflow:visible;"/>
				</clipPath>
			</g>
			<g>
				<defs>
					<path id="SVGID_11_" d="M6.26,9.9c-0.58,0-0.58,1.02,0,1.02h0.99c0,0,0.01,2.76,0,3.4c0,0.46,1.03,0.49,1.03,0.02l0-3.33
						c0,0,0.33-0.07,0.99-0.07c0.62,0,0.62-1.05,0-1.05H6.26z"/>
				</defs>
				<use xlink:href="#SVGID_11_"  style="overflow:visible;fill:#F8DF02;"/>
				<clipPath id="SVGID_4_">
					<use xlink:href="#SVGID_11_"  style="overflow:visible;"/>
				</clipPath>
				<rect x="5.68" y="9.9" style="clip-path:url(#SVGID_4_);fill:#F8DF02;" width="4.22" height="4.91"/>
			</g>
			<g>
				<defs>
					<path id="SVGID_13_" d="M6.26,9.9c-0.58,0-0.58,1.02,0,1.02h0.99c0,0,0.01,2.76,0,3.4c0,0.46,1.03,0.49,1.03,0.02l0-3.33
						c0,0,0.33-0.07,0.99-0.07c0.62,0,0.62-1.05,0-1.05H6.26z"/>
				</defs>
				<clipPath id="SVGID_6_">
					<use xlink:href="#SVGID_13_"  style="overflow:visible;"/>
				</clipPath>
			</g>
		</g>
		<g>
			<g>
				<defs>
					<path id="SVGID_15_" d="M11.14,11.17l0.55,1.73h-1.15L11.14,11.17z M10.52,10.36c-0.25,0.54-1.13,3.08-1.42,3.76
						c-0.21,0.49,0.7,0.88,0.91,0.4l0.2-0.7l1.82,0c0,0-0.06,0.03,0.18,0.67c0.2,0.52,1.14,0.16,0.94-0.36
						c-0.28-0.74-1.24-3.39-1.42-3.77c-0.08-0.17-0.37-0.3-0.65-0.3C10.85,10.06,10.62,10.15,10.52,10.36"/>
				</defs>
				<clipPath id="SVGID_8_">
					<use xlink:href="#SVGID_15_"  style="overflow:visible;"/>
				</clipPath>
			</g>
			<g>
				<defs>
					<path id="SVGID_17_" d="M11.14,11.17l0.55,1.73h-1.15L11.14,11.17z M10.52,10.36c-0.25,0.54-1.13,3.08-1.42,3.76
						c-0.21,0.49,0.7,0.88,0.91,0.4l0.2-0.7l1.82,0c0,0-0.06,0.03,0.18,0.67c0.2,0.52,1.14,0.16,0.94-0.36
						c-0.28-0.74-1.24-3.39-1.42-3.77c-0.08-0.17-0.37-0.3-0.65-0.3C10.85,10.06,10.62,10.15,10.52,10.36"/>
				</defs>
				<use xlink:href="#SVGID_17_"  style="overflow:visible;fill:#F8DF02;"/>
				<clipPath id="SVGID_10_">
					<use xlink:href="#SVGID_17_"  style="overflow:visible;"/>
				</clipPath>
				<rect x="8.89" y="10.06" style="clip-path:url(#SVGID_10_);fill:#F8DF02;" width="4.46" height="4.94"/>
			</g>
			<g>
				<defs>
					<path id="SVGID_19_" d="M11.14,11.17l0.55,1.73h-1.15L11.14,11.17z M10.52,10.36c-0.25,0.54-1.13,3.08-1.42,3.76
						c-0.21,0.49,0.7,0.88,0.91,0.4l0.2-0.7l1.82,0c0,0-0.06,0.03,0.18,0.67c0.2,0.52,1.14,0.16,0.94-0.36
						c-0.28-0.74-1.24-3.39-1.42-3.77c-0.08-0.17-0.37-0.3-0.65-0.3C10.85,10.06,10.62,10.15,10.52,10.36"/>
				</defs>
				<clipPath id="SVGID_12_">
					<use xlink:href="#SVGID_19_"  style="overflow:visible;"/>
				</clipPath>
			</g>
		</g>
		<g>
			<g>
				<defs>
					<path id="SVGID_21_" d="M13.55,10.52c0,0.86,0,3.65,0,3.65s-0.08,0.55,0.4,0.55c0.47,0,1.53,0,2,0c0.47,0,0.46-0.99,0-0.99
						c-0.47,0-1.32,0-1.32,0s0-2.58,0-3.2c0-0.3-0.27-0.45-0.54-0.45C13.81,10.06,13.55,10.21,13.55,10.52"/>
				</defs>
				<clipPath id="SVGID_14_">
					<use xlink:href="#SVGID_21_"  style="overflow:visible;"/>
				</clipPath>
			</g>
			<g>
				<defs>
					<path id="SVGID_23_" d="M13.55,10.52c0,0.86,0,3.65,0,3.65s-0.08,0.55,0.4,0.55c0.47,0,1.53,0,2,0c0.47,0,0.46-0.99,0-0.99
						c-0.47,0-1.32,0-1.32,0s0-2.58,0-3.2c0-0.3-0.27-0.45-0.54-0.45C13.81,10.06,13.55,10.21,13.55,10.52"/>
				</defs>
				<use xlink:href="#SVGID_23_"  style="overflow:visible;fill:#F8DF02;"/>
				<clipPath id="SVGID_16_">
					<use xlink:href="#SVGID_23_"  style="overflow:visible;"/>
				</clipPath>
				<rect x="13.47" y="10.06" style="clip-path:url(#SVGID_16_);fill:#F8DF02;" width="2.94" height="4.66"/>
			</g>
			<g>
				<defs>
					<path id="SVGID_25_" d="M13.55,10.52c0,0.86,0,3.65,0,3.65s-0.08,0.55,0.4,0.55c0.47,0,1.53,0,2,0c0.47,0,0.46-0.99,0-0.99
						c-0.47,0-1.32,0-1.32,0s0-2.58,0-3.2c0-0.3-0.27-0.45-0.54-0.45C13.81,10.06,13.55,10.21,13.55,10.52"/>
				</defs>
				<clipPath id="SVGID_18_">
					<use xlink:href="#SVGID_25_"  style="overflow:visible;"/>
				</clipPath>
			</g>
		</g>
		<g>
			<g>
				<defs>
					<path id="SVGID_27_" d="M16.57,10.38c0.01,0.38-0.01,3.81-0.01,4.06c0,0.4,1.02,0.4,1.02,0c0-0.47,0-1.35,0-1.35l0.3-0.24
						l1.31,1.79c0.26,0.35,1.1-0.28,0.83-0.63l-1.39-1.83c0,0,0.94-1.02,1.32-1.39c0.22-0.22-0.46-0.89-0.67-0.68
						c-0.21,0.21-1.69,1.69-1.69,1.69s0.01-0.93,0-1.44c-0.01-0.19-0.24-0.29-0.49-0.29C16.84,10.06,16.57,10.17,16.57,10.38"/>
				</defs>
				<clipPath id="SVGID_20_">
					<use xlink:href="#SVGID_27_"  style="overflow:visible;"/>
				</clipPath>
			</g>
			<g>
				<defs>
					<path id="SVGID_29_" d="M16.57,10.38c0.01,0.38-0.01,3.81-0.01,4.06c0,0.4,1.02,0.4,1.02,0c0-0.47,0-1.35,0-1.35l0.3-0.24
						l1.31,1.79c0.26,0.35,1.1-0.28,0.83-0.63l-1.39-1.83c0,0,0.94-1.02,1.32-1.39c0.22-0.22-0.46-0.89-0.67-0.68
						c-0.21,0.21-1.69,1.69-1.69,1.69s0.01-0.93,0-1.44c-0.01-0.19-0.24-0.29-0.49-0.29C16.84,10.06,16.57,10.17,16.57,10.38"/>
				</defs>
				<use xlink:href="#SVGID_29_"  style="overflow:visible;fill:#F8DF02;"/>
				<clipPath id="SVGID_22_">
					<use xlink:href="#SVGID_29_"  style="overflow:visible;"/>
				</clipPath>
				<rect x="16.56" y="9.89" style="clip-path:url(#SVGID_22_);fill:#F8DF02;" width="3.73" height="5.1"/>
			</g>
			<g>
				<defs>
					<path id="SVGID_31_" d="M16.57,10.38c0.01,0.38-0.01,3.81-0.01,4.06c0,0.4,1.02,0.4,1.02,0c0-0.47,0-1.35,0-1.35l0.3-0.24
						l1.31,1.79c0.26,0.35,1.1-0.28,0.83-0.63l-1.39-1.83c0,0,0.94-1.02,1.32-1.39c0.22-0.22-0.46-0.89-0.67-0.68
						c-0.21,0.21-1.69,1.69-1.69,1.69s0.01-0.93,0-1.44c-0.01-0.19-0.24-0.29-0.49-0.29C16.84,10.06,16.57,10.17,16.57,10.38"/>
				</defs>
				<clipPath id="SVGID_24_">
					<use xlink:href="#SVGID_31_"  style="overflow:visible;"/>
				</clipPath>
			</g>
		</g>
	</g>
</g>
</svg>
