<?xml version="1.0" encoding="utf-8"?>
<!-- Generator: Adobe Illustrator 24.3.0, SVG Export Plug-In . SVG Version: 6.00 Build 0)  -->
<svg version="1.1" id="Layer_1" xmlns="http://www.w3.org/2000/svg" xmlns:xlink="http://www.w3.org/1999/xlink" x="0px" y="0px"
	 viewBox="0 0 26.12 26.13" style="enable-background:new 0 0 26.12 26.13;" xml:space="preserve">
<style type="text/css">
	.st0{fill:#272727;}
	.st1{fill:#FFFFFF;}
	.st2{clip-path:url(#SVGID_2_);fill:#3E80EF;}
	.st3{clip-path:url(#SVGID_4_);fill:#32A554;}
	.st4{clip-path:url(#SVGID_6_);fill:#F7B900;}
	.st5{clip-path:url(#SVGID_8_);fill:#E54133;}
	.st6{fill:#F8DF02;}
	.st7{fill:#381E1F;}
	.st8{clip-path:url(#SVGID_12_);fill:#F8DF02;}
	.st9{clip-path:url(#SVGID_18_);fill:#F8DF02;}
	.st10{clip-path:url(#SVGID_24_);fill:#F8DF02;}
	.st11{clip-path:url(#SVGID_30_);fill:#F8DF02;}
	.st12{fill:#8BFF00;}
	.st13{fill:#0F0F0F;}
	.st14{opacity:0.48;}
	.st15{opacity:0.65;fill:#FFFFFF;}
</style>
<g>
	<circle class="st1" cx="13.07" cy="13.07" r="13.07"/>
	<g>
		<g>
			<defs>
				<path id="SVGID_1_" d="M23.22,13.3c0-0.72-0.06-1.41-0.18-2.08h-9.57v3.93h5.47c-0.24,1.27-0.95,2.35-2.03,3.07v2.55h3.28
					C22.11,18.99,23.22,16.39,23.22,13.3L23.22,13.3L23.22,13.3z M23.22,13.3"/>
			</defs>
			<clipPath id="SVGID_2_">
				<use xlink:href="#SVGID_1_"  style="overflow:visible;"/>
			</clipPath>
			<rect id="XMLID_12_" x="7.83" y="5.58" class="st2" width="21.04" height="20.83"/>
		</g>
		<g>
			<defs>
				<path id="SVGID_3_" d="M13.47,23.22c2.74,0,5.04-0.91,6.72-2.46l-3.28-2.55c-0.91,0.61-2.07,0.97-3.44,0.97
					c-2.65,0-4.88-1.79-5.68-4.19H4.4v2.63C6.07,20.95,9.5,23.22,13.47,23.22L13.47,23.22L13.47,23.22z M13.47,23.22"/>
			</defs>
			<clipPath id="SVGID_4_">
				<use xlink:href="#SVGID_3_"  style="overflow:visible;"/>
			</clipPath>
			<rect id="XMLID_9_" x="-1.25" y="9.35" class="st3" width="27.08" height="19.51"/>
		</g>
		<g>
			<defs>
				<path id="SVGID_5_" d="M7.79,15c-0.2-0.61-0.32-1.26-0.32-1.93c0-0.67,0.12-1.32,0.32-1.93V8.5H4.4
					c-0.69,1.37-1.08,2.92-1.08,4.56s0.39,3.19,1.08,4.56L7.79,15L7.79,15L7.79,15z M7.79,15"/>
			</defs>
			<clipPath id="SVGID_6_">
				<use xlink:href="#SVGID_5_"  style="overflow:visible;"/>
			</clipPath>
			<rect id="XMLID_6_" x="-2.33" y="2.86" class="st4" width="15.76" height="20.41"/>
		</g>
		<g>
			<defs>
				<path id="SVGID_7_" d="M13.47,6.95c1.49,0,2.83,0.51,3.88,1.52l2.91-2.91c-1.76-1.64-4.06-2.65-6.8-2.65
					c-3.97,0-7.41,2.28-9.08,5.6l3.39,2.63C8.59,8.74,10.83,6.95,13.47,6.95L13.47,6.95L13.47,6.95z M13.47,6.95"/>
			</defs>
			<clipPath id="SVGID_8_">
				<use xlink:href="#SVGID_7_"  style="overflow:visible;"/>
			</clipPath>
			<rect id="XMLID_3_" x="-1.25" y="-2.73" class="st5" width="27.16" height="19.51"/>
		</g>
	</g>
</g>
</svg>
